<?xml version="1.0" encoding="utf-8"?>
<!-- Generator: Adobe Illustrator 21.0.2, SVG Export Plug-In . SVG Version: 6.00 Build 0)  -->
<svg version="1.1" id="Layer_1" xmlns="http://www.w3.org/2000/svg" xmlns:xlink="http://www.w3.org/1999/xlink" x="0px" y="0px"
	 viewBox="0 0 62 46" style="enable-background:new 0 0 62 46;" xml:space="preserve">
<style type="text/css">
	.st0{fill:#DDEBF7;}
	.st1{fill:#5B9BD5;}
	.st2{fill:#FFFFFF;}
	.st3{fill:#FCE4D6;}
	.st4{fill:#ED7D31;}
	.st5{fill:#EDEDED;}
	.st6{fill:#A5A5A5;}
</style>
<g>
	<rect x="1.3" y="0.6" class="st0" width="11.9" height="44.8"/>
	<rect x="2.8" y="4.3" width="8.8" height="1"/>
	<rect x="2.8" y="13.7" width="8.8" height="1"/>
	<rect x="2.8" y="22.8" width="8.8" height="1"/>
	<rect x="2.8" y="32" width="8.8" height="1"/>
	<rect x="2.8" y="40.8" width="8.8" height="1"/>
	<rect x="13.3" y="10.1" class="st1" width="47.4" height="35.3"/>
	<rect x="13.3" y="0.6" class="st0" width="47.4" height="9.5"/>
	<rect x="1.3" y="9.2" class="st2" width="59.3" height="1"/>
	
		<rect x="-9.1" y="22.5" transform="matrix(6.123234e-17 -1 1 6.123234e-17 -9.7483 36.2517)" class="st2" width="44.8" height="1"/>
	<rect x="2.8" y="22.5" transform="matrix(6.123234e-17 -1 1 6.123234e-17 2.1311 48.1311)" class="st2" width="44.8" height="1"/>
	
		<rect x="14.5" y="22.5" transform="matrix(6.123234e-17 -1 1 6.123234e-17 13.8315 59.8315)" class="st2" width="44.8" height="1"/>
	
		<rect x="26.1" y="22.5" transform="matrix(6.123234e-17 -1 1 6.123234e-17 25.4998 71.4998)" class="st2" width="44.8" height="1"/>
	<rect x="1.3" y="18.3" class="st2" width="59.3" height="1"/>
	<rect x="1.3" y="27.2" class="st2" width="59.3" height="1"/>
	<rect x="1.3" y="36.1" class="st2" width="59.3" height="1"/>
	<rect x="14.8" y="4.3" width="8.8" height="1"/>
	<rect x="26.4" y="4.3" width="8.8" height="1"/>
	<rect x="38.2" y="4.3" width="8.8" height="1"/>
	<rect x="50.5" y="4.3" width="8.8" height="1"/>
	<rect x="14.8" y="13.7" class="st2" width="8.8" height="1"/>
	<rect x="26.4" y="13.7" class="st2" width="8.8" height="1"/>
	<rect x="38.2" y="13.7" class="st2" width="8.8" height="1"/>
	<rect x="50.5" y="13.7" class="st2" width="8.8" height="1"/>
	<rect x="14.8" y="23.1" class="st2" width="8.8" height="1"/>
	<rect x="26.4" y="23.1" class="st2" width="8.8" height="1"/>
	<rect x="38.2" y="23.1" class="st2" width="8.8" height="1"/>
	<rect x="50.5" y="23.1" class="st2" width="8.8" height="1"/>
	<rect x="14.8" y="31.7" class="st2" width="8.8" height="1"/>
	<rect x="26.4" y="31.7" class="st2" width="8.8" height="1"/>
	<rect x="38.2" y="31.7" class="st2" width="8.8" height="1"/>
	<rect x="50.5" y="31.7" class="st2" width="8.8" height="1"/>
	<rect x="14.8" y="40.8" class="st2" width="8.8" height="1"/>
	<rect x="26.4" y="40.8" class="st2" width="8.8" height="1"/>
	<rect x="38.2" y="40.8" class="st2" width="8.8" height="1"/>
	<rect x="50.5" y="40.8" class="st2" width="8.8" height="1"/>
</g>
</svg>
