<?xml version="1.0" encoding="utf-8"?>
<!-- Generator: Adobe Illustrator 21.0.2, SVG Export Plug-In . SVG Version: 6.00 Build 0)  -->
<svg version="1.1" id="Layer_1" xmlns="http://www.w3.org/2000/svg" xmlns:xlink="http://www.w3.org/1999/xlink" x="0px" y="0px"
	 viewBox="0 0 62 46" style="enable-background:new 0 0 62 46;" xml:space="preserve">
<style type="text/css">
	.st0{fill:#DDEBF7;}
	.st1{fill:#5B9BD5;}
	.st2{fill:#FFFFFF;}
	.st3{fill:#FCE4D6;}
	.st4{fill:#ED7D31;}
	.st5{fill:#EDEDED;}
	.st6{fill:#A5A5A5;}
</style>
<rect x="2" y="1.6" class="st3" width="11.6" height="43.7"/>
<rect x="3.4" y="5.2" width="8.5" height="1"/>
<rect x="3.4" y="14.4" width="8.5" height="1"/>
<rect x="3.4" y="23.3" width="8.5" height="1"/>
<rect x="3.4" y="32.2" width="8.5" height="1"/>
<rect x="3.4" y="40.8" width="8.5" height="1"/>
<rect x="13.7" y="10.8" class="st4" width="46.3" height="34.4"/>
<rect x="13.7" y="1.6" class="st3" width="46.3" height="9.3"/>
<rect x="2" y="9.9" class="st2" width="57.9" height="0.9"/>
<rect x="-8.2" y="23" transform="matrix(6.123234e-17 -1 1 6.123234e-17 -9.7389 37.0985)" class="st2" width="43.7" height="0.9"/>
<rect x="3.4" y="23" transform="matrix(6.123234e-17 -1 1 6.123234e-17 1.854 48.6913)" class="st2" width="43.7" height="0.9"/>
<rect x="14.9" y="23" transform="matrix(6.123234e-17 -1 1 6.123234e-17 13.2722 60.1095)" class="st2" width="43.7" height="0.9"/>
<rect x="26.2" y="23" transform="matrix(6.123234e-17 -1 1 6.123234e-17 24.6591 71.4964)" class="st2" width="43.7" height="0.9"/>
<rect x="2" y="18.8" class="st2" width="57.9" height="0.9"/>
<rect x="2" y="27.5" class="st2" width="57.9" height="0.9"/>
<rect x="2" y="36.2" class="st2" width="57.9" height="0.9"/>
<rect x="15.2" y="5.2" width="8.5" height="1"/>
<rect x="26.5" y="5.2" width="8.5" height="1"/>
<rect x="38" y="5.2" width="8.5" height="1"/>
<rect x="50" y="5.2" width="8.5" height="1"/>
<rect x="15.2" y="14.4" class="st2" width="8.5" height="1"/>
<rect x="26.5" y="14.4" class="st2" width="8.5" height="1"/>
<rect x="38" y="14.4" class="st2" width="8.5" height="1"/>
<rect x="50" y="14.4" class="st2" width="8.5" height="1"/>
<rect x="15.2" y="23.5" class="st2" width="8.5" height="1"/>
<rect x="26.5" y="23.5" class="st2" width="8.5" height="1"/>
<rect x="38" y="23.5" class="st2" width="8.5" height="1"/>
<rect x="50" y="23.5" class="st2" width="8.5" height="1"/>
<rect x="15.2" y="31.9" class="st2" width="8.5" height="1"/>
<rect x="26.5" y="31.9" class="st2" width="8.5" height="1"/>
<rect x="38" y="31.9" class="st2" width="8.5" height="1"/>
<rect x="50" y="31.9" class="st2" width="8.5" height="1"/>
<rect x="15.2" y="40.8" class="st2" width="8.5" height="1"/>
<rect x="26.5" y="40.8" class="st2" width="8.5" height="1"/>
<rect x="38" y="40.8" class="st2" width="8.5" height="1"/>
<rect x="50" y="40.8" class="st2" width="8.5" height="1"/>
</svg>
