<?xml version="1.0" encoding="utf-8"?>
<!-- Generator: Adobe Illustrator 21.0.2, SVG Export Plug-In . SVG Version: 6.00 Build 0)  -->
<svg version="1.1" id="Layer_1" xmlns="http://www.w3.org/2000/svg" xmlns:xlink="http://www.w3.org/1999/xlink" x="0px" y="0px"
	 viewBox="0 0 62 46" style="enable-background:new 0 0 62 46;" xml:space="preserve">
<style type="text/css">
	.st0{fill:#DDEBF7;}
	.st1{fill:#5B9BD5;}
	.st2{fill:#FFFFFF;}
	.st3{fill:#FCE4D6;}
	.st4{fill:#ED7D31;}
	.st5{fill:#EDEDED;}
	.st6{fill:#A5A5A5;}
</style>
<rect x="1.8" y="1" class="st5" width="11.7" height="44"/>
<rect x="3.2" y="4.6" width="8.6" height="1"/>
<rect x="3.2" y="13.9" width="8.6" height="1"/>
<rect x="3.2" y="22.8" width="8.6" height="1"/>
<rect x="3.2" y="31.8" width="8.6" height="1"/>
<rect x="3.2" y="40.5" width="8.6" height="1"/>
<rect x="13.6" y="10.3" class="st6" width="46.6" height="34.7"/>
<rect x="13.6" y="1" class="st5" width="46.6" height="9.3"/>
<rect x="1.8" y="9.4" class="st2" width="58.3" height="0.9"/>
<rect x="-8.4" y="22.5" transform="matrix(6.123234e-17 -1 1 6.123234e-17 -9.4489 36.5511)" class="st2" width="44" height="0.9"/>
<rect x="3.2" y="22.5" transform="matrix(6.123234e-17 -1 1 6.123234e-17 2.2301 48.2301)" class="st2" width="44" height="0.9"/>
<rect x="14.7" y="22.5" transform="matrix(6.123234e-17 -1 1 6.123234e-17 13.7331 59.7331)" class="st2" width="44" height="0.9"/>
<rect x="26.2" y="22.5" transform="matrix(6.123234e-17 -1 1 6.123234e-17 25.2046 71.2046)" class="st2" width="44" height="0.9"/>
<rect x="1.8" y="18.4" class="st2" width="58.3" height="0.9"/>
<rect x="1.8" y="27.1" class="st2" width="58.3" height="0.9"/>
<rect x="1.8" y="35.9" class="st2" width="58.3" height="0.9"/>
<rect x="15.1" y="4.6" width="8.6" height="1"/>
<rect x="26.4" y="4.6" width="8.6" height="1"/>
<rect x="38" y="4.6" width="8.6" height="1"/>
<rect x="50.1" y="4.6" width="8.6" height="1"/>
<rect x="15.2" y="13.9" class="st2" width="8.6" height="1"/>
<rect x="26.5" y="13.9" class="st2" width="8.6" height="1"/>
<rect x="38.1" y="13.9" class="st2" width="8.6" height="1"/>
<rect x="50.2" y="13.9" class="st2" width="8.6" height="1"/>
<rect x="15.2" y="23.1" class="st2" width="8.6" height="1"/>
<rect x="26.5" y="23.1" class="st2" width="8.6" height="1"/>
<rect x="38.1" y="23.1" class="st2" width="8.6" height="1"/>
<rect x="50.2" y="23.1" class="st2" width="8.6" height="1"/>
<rect x="15.2" y="31.6" class="st2" width="8.6" height="1"/>
<rect x="26.5" y="31.6" class="st2" width="8.6" height="1"/>
<rect x="38.1" y="31.6" class="st2" width="8.6" height="1"/>
<rect x="50.2" y="31.6" class="st2" width="8.6" height="1"/>
<rect x="15.2" y="40.5" class="st2" width="8.6" height="1"/>
<rect x="26.5" y="40.5" class="st2" width="8.6" height="1"/>
<rect x="38.1" y="40.5" class="st2" width="8.6" height="1"/>
<rect x="50.2" y="40.5" class="st2" width="8.6" height="1"/>
</svg>
