<?xml version="1.0" encoding="utf-8"?>
<!-- Generator: Adobe Illustrator 21.1.0, SVG Export Plug-In . SVG Version: 6.00 Build 0)  -->
<svg version="1.1" id="Layer_1" xmlns="http://www.w3.org/2000/svg" xmlns:xlink="http://www.w3.org/1999/xlink" x="0px" y="0px"
	 viewBox="0 0 395.5 133.2" style="enable-background:new 0 0 395.5 133.2;" xml:space="preserve">
<style type="text/css">
	.st0{fill:#E2F2FB;}
	.st1{fill:#FFFFFF;}
	.st2{fill:#3C8BCA;}
	.st3{fill:none;stroke:#FFFFFF;stroke-width:2;stroke-linecap:round;stroke-miterlimit:10;}
	.st4{fill:none;stroke:#E5E5E5;stroke-miterlimit:10;}
	.st5{clip-path:url(#SVGID_4_);}
	.st6{opacity:0.15;fill:#3C8BCA;}
	.st7{opacity:0.6;fill:#3C8BCA;}
	.st8{fill:none;stroke:#FFFFFF;stroke-miterlimit:10;stroke-dasharray:3;}
	.st9{opacity:0.3;fill:#3C8BCA;}
	.st10{fill:#6B6B6B;}
	.st11{fill:#6B1E7E;}
	.st12{fill:#FE954E;}
	.st13{fill:#F7DC91;}
	.st14{fill:#FFD164;}
	.st15{fill:#FFC338;}
	.st16{fill:#FFAC18;}
	.st17{fill:#FDDB8D;}
	.st18{fill:#FECE67;}
	.st19{fill:#FFC236;}
	.st20{fill:#FEB41D;}
	.st21{fill:#D0CECC;}
	.st22{fill:#BFBDBA;}
	.st23{fill:#AFADAA;}
	.st24{fill:#8F8C8D;}
	.st25{fill:#D13F85;}
	.st26{fill:#FF55AD;}
</style>
<image style="overflow:visible;" width="800" height="600" xlink:href="../404.png"  transform="matrix(1 0 0 1 -4133.4404 -173.6177)">
</image>
<rect x="-1889.4" y="-204.6" class="st0" width="1370.9" height="662"/>
<g>
	
		<image style="overflow:visible;opacity:0.3;" width="4629" height="2312" xlink:href="663ED79.png"  transform="matrix(0.24 0 0 0.24 -1763.1439 -144.4977)">
	</image>
	<g>
		<g>
			<g>
				<defs>
					<rect id="SVGID_1_" x="-1397.9" y="-111.7" width="709.6" height="475.8"/>
				</defs>
				<clipPath id="SVGID_2_">
					<use xlink:href="#SVGID_1_"  style="overflow:visible;"/>
				</clipPath>
			</g>
		</g>
		<g>
			<rect x="-1717.1" y="-112.4" class="st1" width="319.2" height="476.5"/>
			
				<image style="overflow:visible;" width="754" height="355" xlink:href="C:\Users\Helical\Downloads\logo-hi.png"  transform="matrix(7.319068e-02 0 0 7.319068e-02 -1677.5985 -80.0001)">
			</image>
			<g>
				<text transform="matrix(1 0 0 1 -1677.598 -5.8189)" class="st10" style="font-family:'Montserrat-Regular'; font-size:12px;">ORGANISATION NAME</text>
			</g>
			<g>
				
					<text transform="matrix(1 0 0 1 -1647.2694 234.0092)" class="st10" style="font-family:'Montserrat-Regular'; font-size:12px;">REMEMBER PASSWORD</text>
			</g>
			<rect x="-1600.8" y="273" class="st2" width="86.6" height="28.5"/>
			<text transform="matrix(1 0 0 1 -1576.2089 292.079)" class="st1" style="font-family:'Montserrat-Bold'; font-size:12px;">LOGIN</text>
			<g>
				<rect x="-1674.3" y="219" class="st2" width="16" height="16"/>
				<g>
					<line class="st3" x1="-1669.3" y1="227" x2="-1667.3" y2="229"/>
					<line class="st3" x1="-1667.3" y1="229" x2="-1663.3" y2="225"/>
				</g>
			</g>
			<g>
				<rect x="-1675.6" y="6.6" class="st4" width="229.2" height="27"/>
				<rect x="-1675.6" y="6.6" class="st4" width="30.3" height="27"/>
			</g>
			<g>
				<text transform="matrix(1 0 0 1 -1677.598 71.5145)" class="st10" style="font-family:'Montserrat-Regular'; font-size:12px;">USER NAME</text>
			</g>
			<g>
				<rect x="-1675.6" y="83.9" class="st4" width="229.2" height="27"/>
				<rect x="-1675.6" y="83.9" class="st4" width="30.3" height="27"/>
			</g>
			<g>
				<text transform="matrix(1 0 0 1 -1677.598 148.848)" class="st10" style="font-family:'Montserrat-Regular'; font-size:12px;">PASSWORD</text>
			</g>
			<g>
				<rect x="-1675.6" y="161.3" class="st4" width="229.2" height="27"/>
				<rect x="-1675.6" y="161.3" class="st4" width="30.3" height="27"/>
			</g>
			<g>
				<defs>
					<rect id="SVGID_3_" x="-1397.9" y="-111.7" width="709.6" height="475.8"/>
				</defs>
				<clipPath id="SVGID_4_">
					<use xlink:href="#SVGID_3_"  style="overflow:visible;"/>
				</clipPath>
				<g class="st5">
					
						<image style="overflow:visible;" width="5472" height="3648" xlink:href="C:\Users\Helical\Downloads\StockSnap_SWRREC0K3A.jpg"  transform="matrix(0.1304 0 0 0.1304 -1397.9177 -111.7309)">
					</image>
					<rect x="-1397.9" y="-112.4" class="st6" width="713.7" height="476.5"/>
					<polygon class="st7" points="-1397.9,282.1 -1318.9,224.8 -1278,253.5 -1112,184.6 -1026.6,242.8 -986.9,203.4 -906.9,249.6 
						-832.9,224.8 -759.6,267.1 -684.2,237.3 -684.2,364.1 -1397.9,364.1 					"/>
					
						<text transform="matrix(1 0 0 1 -1295.2954 307.5898)" class="st1" style="font-family:'Montserrat-Bold'; font-size:36.0848px;">Visualize, Analyze, Be Wise</text>
					<polyline class="st8" points="-1397.9,267.1 -1320.1,212.6 -1277.7,241.8 -1112,173.2 -1028.4,227.9 -988.1,190.6 
						-906.9,237.6 -832.9,212.9 -760.2,255 -685,226.1 					"/>
					<g>
						<circle class="st9" cx="-1320.1" cy="212.6" r="4.6"/>
						<circle class="st2" cx="-1320.1" cy="212.6" r="2.8"/>
					</g>
					<g>
						<circle class="st9" cx="-1277.7" cy="241.8" r="4.6"/>
						<circle class="st2" cx="-1277.7" cy="241.8" r="2.8"/>
					</g>
					<g>
						<circle class="st9" cx="-832.9" cy="212.9" r="4.6"/>
						<circle class="st2" cx="-832.9" cy="212.9" r="2.8"/>
					</g>
				</g>
			</g>
			<g>
				<g>
					<path class="st10" d="M-1653.5,24.4h-0.7V14.2c0-0.3-0.2-0.7-0.5-0.8l-0.6-0.2l0,0l-1.3-0.5l-1.5-0.6l-1.3-0.5l-1.3-0.5l0,0
						l0,0c-0.1,0-0.2,0-0.3,0l0,0h-0.1l-6.1,2.4c-0.3,0.2-0.5,0.5-0.5,0.8v10.2h-0.7c-0.4,0-0.8,0.3-0.8,0.8c0,0.4,0.3,0.8,0.8,0.8
						l0,0h14.7c0.4,0,0.8-0.3,0.8-0.8S-1653,24.4-1653.5,24.4z M-1661.5,23l-4.7,0.1V22l4.7-0.3V23z M-1661.5,20.1l-4.7,0.6v-1.2
						l4.7-0.8V20.1z M-1661.5,17.3l-4.7,1.1v-1.2l4.7-1.3V17.3z M-1661.5,14.5l-4.7,1.6v-1.2l4.7-1.9V14.5z M-1663.2,28.2l-0.5,0.5
						l0.1,0.8c0,0.1,0,0.2-0.1,0.2h-0.1l-0.7-0.3l-0.7,0.3c-0.1,0-0.2,0-0.2-0.1v-0.1l0.1-0.8l-0.5-0.5c-0.1-0.1-0.1-0.2,0-0.2h0.1
						l0.8-0.1l0.3-0.7c0-0.1,0.1-0.1,0.2-0.1c0,0,0.1,0,0.1,0.1l0.3,0.7l0.8,0.1c0.1,0,0.2,0.1,0.2,0.2
						C-1663.2,28.1-1663.2,28.2-1663.2,28.2z M-1659.6,28.2l-0.5,0.5l0.1,0.8c0,0.1,0,0.2-0.1,0.2h-0.1l-0.7-0.3l-0.7,0.3
						c-0.1,0-0.2,0-0.2-0.1v-0.1l0.1-0.8l-0.5-0.5c-0.1-0.1-0.1-0.2,0-0.2h0.1l0.8-0.1l0.3-0.7c0-0.1,0.1-0.1,0.2-0.1
						c0,0,0.1,0,0.1,0.1l0.3,0.7l0.8,0.1C-1659.6,28-1659.5,28-1659.6,28.2C-1659.6,28.1-1659.6,28.2-1659.6,28.2z M-1656,28.2
						l-0.5,0.5l0.1,0.8c0,0.1,0,0.2-0.1,0.2h-0.1l-0.7-0.3l-0.7,0.3c-0.1,0-0.2,0-0.2-0.1v-0.1l0.1-0.8l-0.5-0.5
						c-0.1-0.1-0.1-0.2,0-0.2h0.1l0.8-0.1l0.3-0.7c0-0.1,0.1-0.1,0.2-0.1c0,0,0.1,0,0.1,0.1l0.3,0.7l0.8,0.1c0.1,0,0.2,0.1,0.2,0.2
						C-1655.9,28.1-1656,28.2-1656,28.2z"/>
				</g>
			</g>
			<g>
				<g>
					<circle class="st10" cx="-1661.2" cy="94.9" r="2.7"/>
					<path class="st10" d="M-1661.2,89.5c-4.5,0-8.3,3.7-8.3,8.3c0,3.3,1.9,6.1,4.5,7.4c1.1,0.6,2.4,0.9,3.7,0.9
						c1.3,0,2.6-0.3,3.7-0.9c2.7-1.3,4.5-4.2,4.5-7.4C-1652.9,93.2-1656.6,89.5-1661.2,89.5z M-1657.5,104.2
						c0.2-1.2,0.6-1.8,0.6-1.8c1.6-2.5-0.9-4-0.9-4c-0.6-0.3-1.3-0.6-1.8-0.8c-0.4,0.3-1,0.5-1.6,0.5c-0.6,0-1.2-0.2-1.6-0.5
						c-0.6,0.2-1.2,0.4-1.8,0.8c0,0-2.6,1.4-0.9,4c0,0,0.4,0.7,0.6,1.8c-2.3-1.3-3.7-3.7-3.7-6.5c0-4.1,3.4-7.5,7.5-7.5
						s7.5,3.4,7.5,7.5C-1653.8,100.5-1655.2,102.9-1657.5,104.2z"/>
				</g>
			</g>
			<g>
				<g>
					<path class="st10" d="M-1661.2,167.6c3.9,0,7.1,3.2,7.1,7.1s-3.2,7.1-7.1,7.1c-3.9,0-7.2-3.2-7.2-7.1
						S-1665.3,167.6-1661.2,167.6 M-1661.2,166.5c-4.5,0-8.2,3.7-8.2,8.2s3.7,8.2,8.2,8.2c4.5,0,8.2-3.7,8.2-8.2
						S-1656.7,166.5-1661.2,166.5L-1661.2,166.5z M-1657,173.8h-5.5c-0.3-0.8-1-1.3-1.8-1.3c-1.1,0-1.9,0.8-1.9,1.9s0.8,1.9,1.9,1.9
						c0.9,0,1.6-0.6,1.8-1.3h2.2v0.8c0,0.3,0.3,0.6,0.6,0.6s0.6-0.3,0.6-0.6V175h0.3v1.5c0,0.3,0.3,0.6,0.6,0.6s0.6-0.3,0.6-0.6V175
						h0.8c0.3,0,0.6-0.3,0.6-0.6S-1656.7,173.8-1657,173.8z M-1664.4,175.2c-0.4,0-0.8-0.3-0.8-0.8c0-0.4,0.3-0.8,0.8-0.8
						c0.4,0,0.8,0.3,0.8,0.8C-1663.6,174.8-1663.9,175.2-1664.4,175.2z"/>
				</g>
			</g>
		</g>
		<g>
			<g>
				<defs>
					<rect id="SVGID_5_" x="-1397.9" y="-111.7" width="709.6" height="475.8"/>
				</defs>
				<clipPath id="SVGID_6_">
					<use xlink:href="#SVGID_5_"  style="overflow:visible;"/>
				</clipPath>
			</g>
		</g>
	</g>
</g>
<g>
	<rect x="-3295.9" y="-204.6" class="st1" width="1370.9" height="46.5"/>
</g>
<g>
	<rect x="-3295.9" y="-204.6" class="st0" width="1370.9" height="662"/>
</g>
<text transform="matrix(1 0 0 1 -2693.238 197.5374)" style="font-family:'Montserrat-Regular'; font-size:38px;">404 Error</text>
<text transform="matrix(1 0 0 1 -2923.2246 244.535)" style="font-family:'Montserrat-Regular'; font-size:25px;">We could not find the page your were looking for</text>
<text transform="matrix(1 0 0 1 -2669.0918 -78.9478)" style="font-family:'Montserrat-Regular'; font-size:38px;">OOPS !</text>
<g>
	<g>
		<path class="st11" d="M-2809.6,127.3l4.2-6c0,0,3.7,2.7,3.9,6H-2809.6z"/>
		<path class="st12" d="M-2779.2,82.6l-26.3,38.8c0,0,2.9,2.2,3.9,6l47.3-0.8L-2779.2,82.6z"/>
		<polygon class="st13" points="-2642.9,6.6 -2779.2,82.6 -2773,93.5 -2632.1,15.8 -2630,10.5 		"/>
		<polygon class="st14" points="-2766.8,104.2 -2773,93.5 -2632.1,15.8 -2634.1,22.8 -2622.8,25.2 		"/>
		<polygon class="st15" points="-2760.5,115.5 -2766.8,104.2 -2622.8,25.2 -2626.6,38.1 -2622,39 		"/>
		<polygon class="st16" points="-2614.4,40.8 -2617.4,50.7 -2754.2,126.4 -2760.5,115.5 -2622,39 		"/>
	</g>
	<g>
		<polygon class="st17" points="-2576.9,0 -2457.7,67.5 -2464,78.3 -2579.8,14.4 -2572.7,12.6 		"/>
		<polygon class="st18" points="-2464,78.3 -2470.3,89.5 -2581.6,27 -2585.6,15.5 -2579.8,14.4 		"/>
		<polygon class="st19" points="-2470.3,89.5 -2476,100.3 -2594.2,33.1 -2594.2,29.9 -2581.6,27 		"/>
		<polygon class="st20" points="-2476,100.3 -2481.8,111.3 -2600.3,44.4 -2590.3,42.5 -2594.2,33.1 		"/>
		<polygon class="st21" points="-2457.7,67.5 -2427.6,84.1 -2434,95.5 -2464,78.3 		"/>
		<polygon class="st22" points="-2440.2,106.1 -2470.3,89.5 -2464,78.3 -2434,95.5 		"/>
		<polygon class="st23" points="-2446.7,117.5 -2476,100.3 -2470.3,89.5 -2440.2,106.1 		"/>
		<polygon class="st24" points="-2453,128 -2481.8,111.3 -2476,100.3 -2446.7,117.5 		"/>
		<path class="st25" d="M-2453,128l8.5,4.4c0,0,6.9,2.3,12.3-1.2l10.1-14.5l-17.8-11.2L-2453,128z"/>
		<path class="st26" d="M-2427.6,84.1l11.4,7.5c0,0,3.3,4.8,1.5,11.9l-7.4,13.2l-17.8-11.2L-2427.6,84.1z"/>
	</g>
</g>
<rect x="-2748.8" y="281" class="st2" width="282.7" height="52.5"/>
<g>
	<text transform="matrix(1 0 0 1 -2717.238 316.5374)" class="st1" style="font-family:'Montserrat-Regular'; font-size:25px;">Go back to Home</text>
</g>
<g>
	<g>
		<path class="st11" d="M0,127.3l4.2-6c0,0,3.7,2.7,3.9,6H0z"/>
		<path class="st12" d="M30.5,82.6L4.2,121.3c0,0,2.9,2.2,3.9,6l47.3-0.8L30.5,82.6z"/>
		<polygon class="st13" points="166.8,6.6 30.5,82.6 36.7,93.5 177.5,15.8 179.6,10.5 		"/>
		<polygon class="st14" points="42.8,104.2 36.7,93.5 177.5,15.8 175.6,22.8 186.9,25.2 		"/>
		<polygon class="st15" points="49.2,115.5 42.8,104.2 186.9,25.2 183,38.1 187.7,39 		"/>
		<polygon class="st16" points="195.2,40.8 192.2,50.7 55.4,126.4 49.2,115.5 187.7,39 		"/>
	</g>
	<g>
		<polygon class="st17" points="232.8,0 352,67.5 345.7,78.3 229.9,14.4 237,12.6 		"/>
		<polygon class="st18" points="345.7,78.3 339.4,89.5 228,27 224.1,15.5 229.9,14.4 		"/>
		<polygon class="st19" points="339.4,89.5 333.6,100.3 215.4,33.1 215.4,29.9 228,27 		"/>
		<polygon class="st20" points="333.6,100.3 327.8,111.3 209.4,44.4 219.4,42.5 215.4,33.1 		"/>
		<polygon class="st21" points="352,67.5 382,84.1 375.6,95.5 345.7,78.3 		"/>
		<polygon class="st22" points="369.5,106.1 339.4,89.5 345.7,78.3 375.6,95.5 		"/>
		<polygon class="st23" points="362.9,117.5 333.6,100.3 339.4,89.5 369.5,106.1 		"/>
		<polygon class="st24" points="356.7,128 327.8,111.3 333.6,100.3 362.9,117.5 		"/>
		<path class="st25" d="M356.7,128l8.5,4.4c0,0,6.9,2.3,12.3-1.2l10.1-14.5l-17.8-11.2L356.7,128z"/>
		<path class="st26" d="M382,84.1l11.4,7.5c0,0,3.3,4.8,1.5,11.9l-7.4,13.2l-17.8-11.2L382,84.1z"/>
	</g>
</g>
</svg>
