<?xml version="1.0" encoding="utf-8"?>
<!-- Generator: Adobe Illustrator 19.2.1, SVG Export Plug-In . SVG Version: 6.00 Build 0)  -->
<svg version="1.1" id="Layer_1" xmlns="http://www.w3.org/2000/svg" xmlns:xlink="http://www.w3.org/1999/xlink" x="0px" y="0px"
	 viewBox="0 0 1033.4 483" style="enable-background:new 0 0 1033.4 483;" xml:space="preserve">
<style type="text/css">
	.st0{fill:#FFFFFF;}
	.st1{fill:#90C601;stroke:#FFFFFF;stroke-width:15;stroke-miterlimit:10;}
	.st2{fill:#498EF2;}
	.st3{fill:#45473F;stroke:#FFFFFF;stroke-miterlimit:10;}
</style>
<g>
	<polygon class="st0" points="1009.1,405.9 720.2,309.9 582.8,365.6 526.5,394.1 486,389.2 453.4,363.1 334,318.1 43.9,405.9 
		43.9,89.4 105.9,97.8 327.3,158.6 476.8,103.7 508.4,90.8 547.8,97.7 597.5,137 733.2,172 1009.1,89.4 	"/>
	<path class="st1" d="M43.9,89.4c0,0-29.3-11.8-25.8-39.3c0,0,1.1-24.1,28.4-33.9c0,0,158.5-10.9,268.7,139
		c0,0,8.6,10.3,120.6,184.8c0,0,57.7,97.8,129.2,38.8c0,0,34.7-23.1,108-124.7l47.2,60.1c0,0-76.8,112.4-141.8,143.4
		c0,0-92.6,48.7-176.1-41.3c0,0-55.1-71.5-64.6-92.2c0,0-89.6-146.4-120.6-167.1C217,156.8,150.7,83.9,43.9,89.4z"/>
	<path class="st1" d="M733.2,172c0,0,119.1-157.8,263.3-156c0,0,32.7,12.1,25,47c0,0-4,21.5-30.7,27c0,0-105.2,5.9-211.9,144.7
		L733.2,172z"/>
	<path class="st1" d="M45.1,397.7c0,0,14.7,2.1,38-1c44.8-6,128.8-45.5,193.4-141.4l44.8,67.5c0,0-103.9,154.6-276.2,147.8
		c0,0-28.4-9.7-27.3-38.7C17.8,431.9,19.2,407.8,45.1,397.7z"/>
	<path class="st1" d="M335.6,160c0,0,54.6-84.1,98.9-116c0,0,60.7-46.1,131.8-18.9c0,0,52.4,16.1,105.2,85c0,0,44.6,53.3,73.5,97.2
		c0,0,62.9,87.4,102.9,122.3c0,0,62.9,65,143,68.5c0,0,27.6,4.7,31,28.9v13.1c0,0-0.1,22.1-28.6,31.3c0,0-90.9,3.4-190.9-82.7
		c0,0-62.6-60.3-140.1-170c0,0-74.1-109.1-117.1-121.7c0,0-47.7-28.7-94.7,32.7c0,0-48.5,52-73.2,94.5L335.6,160z"/>
	<path class="st2" d="M62.9,125.4c0,0,36.2,2.2,54.3,10.8v214.9c0,0-15.5,7.8-54.3,8.6V125.4z"/>
	<path class="st2" d="M152.4,153c0,0,20.5,8.4,57.5,51.9v85.3c0,0-30.4,34-57.5,44.4V153z"/>
	<polygon class="st2" points="452.6,182.7 452.6,295.5 417.1,237.8 	"/>
	<path class="st2" d="M488.6,138.8c0,0,27.3-27.6,55.1,0v210.6c0,0-28.1,31.6-55.1-5.2V138.8z"/>
	<polygon class="st2" points="582.8,170.3 635.9,238.7 582.8,309.9 	"/>
	<path class="st2" d="M841.5,219.1c0,0,43.1-45.4,56-52.8v158.8c0,0-14.9-7.8-56-50.5V219.1z"/>
	<path class="st2" d="M935.4,141.3c0,0,17.7-10.8,55.1-15.9v234.7c0,0-34.5-1.7-55.1-13.8V141.3z"/>
	<path class="st3" d="M117.1,456.6"/>
</g>
</svg>
