<?xml version="1.0" encoding="utf-8"?>
<!-- Generator: Adobe Illustrator 19.2.1, SVG Export Plug-In . SVG Version: 6.00 Build 0)  -->
<svg version="1.1" id="Layer_1" xmlns="http://www.w3.org/2000/svg" xmlns:xlink="http://www.w3.org/1999/xlink" x="0px" y="0px"
	 viewBox="0 0 28.5 34.7" style="enable-background:new 0 0 28.5 34.7;" xml:space="preserve">
<style type="text/css">
	.st0{fill:#FFFFFF;}
</style>
<path class="st0" d="M25.1,21.9h-0.8V9.8c0-0.4-0.2-0.8-0.6-1L23,8.6l0,0L21.4,8l-1.8-0.7L18,6.7l-1.6-0.6l0,0l0,0
	c-0.1,0-0.2,0-0.3,0l0,0H16L8.8,8.9c-0.4,0.2-0.6,0.6-0.6,1V22H7.4c-0.5,0-1,0.4-1,1c0,0.5,0.4,1,1,1l0,0h17.5c0.5,0,1-0.4,1-1
	S25.7,21.9,25.1,21.9z M15.6,20.2L10,20.3V19l5.6-0.4V20.2z M15.6,16.8L10,17.5v-1.4l5.6-1V16.8z M15.6,13.4L10,14.7v-1.4l5.6-1.6
	V13.4z M15.6,10.1L10,12v-1.4l5.6-2.2V10.1z M13.6,26.4L13,27l0.1,0.9c0,0.1,0,0.2-0.1,0.2h-0.1l-0.8-0.4l-0.8,0.4
	c-0.1,0-0.2,0-0.2-0.1v-0.1l0.1-0.9l-0.6-0.6c-0.1-0.1-0.1-0.2,0-0.2h0.1l0.9-0.1l0.4-0.8c0-0.1,0.1-0.1,0.2-0.1c0,0,0.1,0,0.1,0.1
	l0.4,0.8l0.9,0.1c0.1,0,0.2,0.1,0.2,0.2C13.6,26.3,13.6,26.4,13.6,26.4z M17.9,26.4L17.3,27l0.1,0.9c0,0.1,0,0.2-0.1,0.2h-0.1
	l-0.8-0.4l-0.8,0.4c-0.1,0-0.2,0-0.2-0.1v-0.1l0.1-0.9l-0.6-0.6c-0.1-0.1-0.1-0.2,0-0.2H15l0.9-0.1l0.4-0.8c0-0.1,0.1-0.1,0.2-0.1
	c0,0,0.1,0,0.1,0.1l0.4,0.8l0.9,0.1C17.9,26.1,18,26.2,17.9,26.4C17.9,26.3,17.9,26.4,17.9,26.4z M22.2,26.4L21.6,27l0.1,0.9
	c0,0.1,0,0.2-0.1,0.2h-0.1l-0.8-0.4l-0.8,0.4c-0.1,0-0.2,0-0.2-0.1v-0.1l0.1-0.9l-0.6-0.6c-0.1-0.1-0.1-0.2,0-0.2h0.1l0.9-0.1
	l0.4-0.8c0-0.1,0.1-0.1,0.2-0.1c0,0,0.1,0,0.1,0.1l0.4,0.8l0.9,0.1c0.1,0,0.2,0.1,0.2,0.2C22.3,26.3,22.2,26.4,22.2,26.4z"/>
</svg>
