<?xml version="1.0" encoding="utf-8"?>
<!-- Generator: Adobe Illustrator 19.2.1, SVG Export Plug-In . SVG Version: 6.00 Build 0)  -->
<svg version="1.1" id="Layer_1" xmlns="http://www.w3.org/2000/svg" xmlns:xlink="http://www.w3.org/1999/xlink" x="0px" y="0px"
	 viewBox="0 0 28.5 34.7" style="enable-background:new 0 0 28.5 34.7;" xml:space="preserve">
<style type="text/css">
	.st0{fill:#FFFFFF;}
</style>
<path class="st0" d="M14.3,8.8c4.7,0,8.5,3.8,8.5,8.5s-3.8,8.5-8.5,8.5S5.7,22,5.7,17.3S9.5,8.8,14.3,8.8 M14.3,7.5
	c-5.4,0-9.8,4.4-9.8,9.8s4.4,9.8,9.8,9.8s9.8-4.4,9.8-9.8S19.7,7.5,14.3,7.5L14.3,7.5z M19.3,16.2h-6.6c-0.3-0.9-1.2-1.6-2.2-1.6
	c-1.3,0-2.3,1-2.3,2.3c0,1.3,1,2.3,2.3,2.3c1.1,0,1.9-0.7,2.2-1.6h2.6v0.9c0,0.4,0.3,0.7,0.7,0.7c0.4,0,0.7-0.3,0.7-0.7v-0.9h0.4
	v1.8c0,0.4,0.3,0.7,0.7,0.7s0.7-0.3,0.7-0.7v-1.8h1c0.4,0,0.7-0.3,0.7-0.7S19.7,16.2,19.3,16.2z M10.6,17.8c-0.5,0-1-0.4-1-1
	c0-0.5,0.4-1,1-1c0.5,0,1,0.4,1,1C11.5,17.4,11.1,17.8,10.6,17.8z"/>
</svg>
