<?xml version="1.0" encoding="utf-8"?>
<!-- Generator: Adobe Illustrator 19.2.1, SVG Export Plug-In . SVG Version: 6.00 Build 0)  -->
<svg version="1.1" id="Layer_1" xmlns="http://www.w3.org/2000/svg" xmlns:xlink="http://www.w3.org/1999/xlink" x="0px" y="0px"
	 viewBox="0 0 28.5 34.7" style="enable-background:new 0 0 28.5 34.7;" xml:space="preserve">
<style type="text/css">
	.st0{fill:#FFFFFF;}
</style>
<g>
	<circle class="st0" cx="14.3" cy="14" r="3.2"/>
	<path class="st0" d="M14.3,7.5c-5.4,0-9.9,4.4-9.9,9.9c0,3.9,2.2,7.2,5.4,8.8c1.3,0.7,2.8,1.1,4.4,1.1s3.1-0.4,4.4-1.1
		c3.2-1.6,5.4-5,5.4-8.8C24.1,11.9,19.7,7.5,14.3,7.5z M18.7,25c0.2-1.4,0.7-2.1,0.7-2.1c1.9-3-1.1-4.7-1.1-4.7
		c-0.7-0.4-1.5-0.7-2.1-0.9c-0.5,0.4-1.2,0.6-1.9,0.6s-1.4-0.2-1.9-0.6c-0.7,0.2-1.4,0.5-2.1,0.9c0,0-3.1,1.7-1.1,4.7
		c0,0,0.5,0.8,0.7,2.1c-2.7-1.5-4.4-4.4-4.4-7.7c0-4.9,4-8.9,8.9-8.9s8.9,4,8.9,8.9C23.1,20.6,21.4,23.5,18.7,25z"/>
</g>
</svg>
