<svg id="svg" version="1.1" xmlns="http://www.w3.org/2000/svg" xmlns:xlink="http://www.w3.org/1999/xlink" width="400" height="400" viewBox="0, 0, 400,400"><g id="svgg"><path id="path0" d="M1.500 51.257 L -0.000 52.874 0.000 200.004 L 0.000 347.135 1.569 348.767 L 3.137 350.400 171.162 350.400 L 339.186 350.400 340.429 349.300 C 341.113 348.695,343.711 346.190,346.203 343.733 C 348.694 341.277,350.838 339.372,350.967 339.500 C 351.095 339.628,351.200 339.423,351.200 339.043 C 351.200 338.663,351.380 338.464,351.600 338.600 C 351.820 338.736,352.000 338.579,352.000 338.251 C 352.000 337.922,352.351 337.543,352.780 337.406 C 353.208 337.270,353.670 336.808,353.806 336.380 C 353.943 335.951,354.322 335.600,354.651 335.600 C 354.979 335.600,355.136 335.420,355.000 335.200 C 354.864 334.980,355.044 334.800,355.400 334.800 C 355.756 334.800,355.974 334.665,355.886 334.500 C 355.672 334.104,367.060 322.794,367.365 323.098 C 367.494 323.228,367.600 323.023,367.600 322.643 C 367.600 322.263,367.780 322.064,368.000 322.200 C 368.220 322.336,368.400 322.167,368.400 321.824 C 368.400 321.481,368.572 321.200,368.782 321.200 C 369.278 321.200,371.200 319.278,371.200 318.782 C 371.200 318.572,371.481 318.400,371.824 318.400 C 372.167 318.400,372.336 318.220,372.200 318.000 C 372.064 317.780,372.244 317.600,372.600 317.600 C 372.956 317.600,373.174 317.465,373.086 317.300 C 372.872 316.904,384.260 305.594,384.565 305.898 C 384.694 306.028,384.800 305.823,384.800 305.443 C 384.800 305.063,384.980 304.864,385.200 305.000 C 385.420 305.136,385.600 304.979,385.600 304.651 C 385.600 304.322,385.951 303.943,386.380 303.806 C 386.808 303.670,387.270 303.208,387.406 302.780 C 387.543 302.351,387.922 302.000,388.251 302.000 C 388.579 302.000,388.736 301.820,388.600 301.600 C 388.464 301.380,388.663 301.200,389.043 301.200 C 389.423 301.200,389.634 301.100,389.512 300.979 C 389.391 300.857,391.431 298.581,394.046 295.921 C 396.660 293.260,398.800 290.952,398.800 290.791 C 398.800 290.630,399.071 290.273,399.402 289.998 C 399.936 289.555,399.992 276.105,399.902 171.036 L 399.800 52.573 398.313 51.087 L 396.827 49.600 199.913 49.620 L 3.000 49.641 1.500 51.257 M128.400 76.909 C 129.170 77.183,129.980 77.520,130.200 77.659 C 130.420 77.798,131.275 78.292,132.100 78.756 C 133.924 79.782,135.961 80.945,137.700 81.954 C 138.415 82.368,141.061 83.898,143.580 85.354 L 148.159 88.000 159.431 88.000 C 168.599 88.000,170.973 88.113,172.154 88.607 C 173.752 89.274,176.000 91.409,176.000 92.259 C 176.000 92.557,176.159 92.800,176.353 92.800 C 176.548 92.800,176.810 93.115,176.936 93.500 C 177.062 93.885,177.668 95.029,178.282 96.043 C 178.897 97.057,180.922 100.567,182.781 103.843 C 184.641 107.119,186.351 109.936,186.581 110.101 C 186.960 110.374,188.366 111.212,191.800 113.212 C 192.460 113.596,195.340 115.249,198.200 116.884 C 209.053 123.091,208.147 121.342,208.400 136.570 C 208.593 148.152,208.634 148.656,209.500 150.100 C 209.995 150.925,210.760 152.230,211.200 153.000 C 211.640 153.770,212.360 155.030,212.800 155.800 C 213.240 156.570,213.938 157.785,214.351 158.500 C 215.556 160.585,218.037 164.893,218.811 166.245 C 219.500 167.446,219.780 169.091,219.658 171.209 C 219.626 171.764,217.690 175.544,215.355 179.609 C 213.020 183.674,210.751 187.630,210.312 188.400 C 209.874 189.170,209.309 190.052,209.057 190.360 C 208.747 190.741,208.536 194.863,208.400 203.224 L 208.200 215.527 207.000 217.006 C 205.948 218.303,203.193 220.204,198.573 222.822 C 197.818 223.250,196.570 223.960,195.800 224.400 C 195.030 224.840,193.725 225.581,192.900 226.047 C 192.075 226.513,190.950 227.194,190.400 227.561 C 189.850 227.928,188.904 228.478,188.297 228.783 C 186.646 229.614,186.141 230.252,183.850 234.400 C 182.695 236.490,181.259 239.010,180.658 240.000 C 180.057 240.990,179.462 242.115,179.336 242.500 C 179.210 242.885,178.981 243.200,178.828 243.200 C 178.675 243.200,178.302 243.830,178.000 244.600 C 177.698 245.370,177.304 246.000,177.125 246.000 C 176.946 246.000,176.800 246.193,176.800 246.428 C 176.800 247.499,174.292 250.381,172.682 251.160 C 171.183 251.886,170.215 252.000,165.558 252.000 L 160.168 252.000 160.165 284.300 C 160.163 302.065,160.018 317.349,159.842 318.264 C 159.499 320.054,157.336 322.800,156.270 322.800 C 155.927 322.800,155.536 322.980,155.400 323.200 C 154.560 324.559,150.242 323.250,146.800 320.593 C 145.810 319.829,144.354 318.769,143.564 318.237 C 142.774 317.706,141.874 317.024,141.564 316.722 C 141.254 316.420,140.370 315.738,139.600 315.206 C 138.830 314.674,138.110 314.139,138.000 314.018 C 137.890 313.897,136.720 312.989,135.400 312.000 C 134.080 311.011,132.910 310.103,132.800 309.982 C 132.690 309.861,131.970 309.325,131.200 308.792 C 130.430 308.258,129.482 307.531,129.093 307.175 C 127.136 305.384,125.342 305.523,123.600 307.600 C 123.490 307.731,122.770 308.271,122.000 308.800 C 121.230 309.329,120.510 309.869,120.400 310.000 C 120.290 310.131,119.570 310.671,118.800 311.200 C 118.030 311.729,117.310 312.266,117.200 312.394 C 116.708 312.966,104.197 322.128,102.959 322.823 C 99.498 324.767,93.600 322.375,93.600 319.027 C 93.600 318.488,93.420 317.936,93.200 317.800 C 92.939 317.638,92.800 306.196,92.800 284.776 L 92.800 252.000 87.380 252.000 C 83.187 252.000,81.670 251.854,80.680 251.354 C 79.060 250.537,77.200 248.811,77.200 248.125 C 77.200 247.836,77.054 247.600,76.875 247.600 C 76.696 247.600,76.302 246.970,76.000 246.200 C 75.698 245.430,75.325 244.800,75.172 244.800 C 75.019 244.800,74.790 244.485,74.664 244.100 C 74.538 243.715,74.000 242.680,73.467 241.800 C 72.935 240.920,71.167 237.893,69.539 235.072 C 67.088 230.827,66.305 229.795,64.989 229.072 C 64.115 228.593,63.310 228.110,63.200 228.000 C 63.090 227.890,62.595 227.575,62.100 227.300 C 61.605 227.025,60.795 226.575,60.300 226.300 C 59.805 226.025,59.310 225.710,59.200 225.600 C 59.090 225.490,58.280 225.019,57.400 224.554 C 44.095 217.515,44.400 218.044,44.400 202.006 C 44.400 195.843,44.254 190.800,44.075 190.800 C 43.896 190.800,43.502 190.170,43.200 189.400 C 42.898 188.630,42.525 188.000,42.372 188.000 C 42.219 188.000,41.990 187.685,41.864 187.300 C 41.738 186.915,41.152 185.790,40.561 184.800 C 39.970 183.810,39.152 182.415,38.743 181.700 C 37.649 179.786,36.696 178.136,34.850 174.960 C 33.487 172.614,33.200 171.755,33.200 170.022 C 33.200 167.795,33.347 167.467,37.597 160.200 C 40.196 155.756,41.489 153.514,43.588 149.809 C 44.310 148.535,44.388 147.473,44.517 137.109 C 44.692 122.968,44.944 122.187,50.226 119.357 C 51.092 118.893,54.199 117.138,57.131 115.457 C 60.063 113.776,62.628 112.400,62.831 112.400 C 63.034 112.400,63.200 112.220,63.200 112.000 C 63.200 111.780,63.383 111.600,63.606 111.600 C 64.320 111.600,66.747 109.828,67.166 109.000 C 67.389 108.560,68.092 107.300,68.728 106.200 C 69.364 105.100,70.290 103.480,70.785 102.600 C 71.280 101.720,71.827 100.820,72.000 100.600 C 72.173 100.380,72.677 99.550,73.120 98.755 C 74.762 95.806,75.005 95.396,75.221 95.200 C 75.342 95.090,75.750 94.338,76.126 93.528 C 78.493 88.439,79.887 88.001,93.760 87.994 L 105.000 87.988 111.540 84.194 C 115.137 82.107,118.242 80.400,118.440 80.400 C 118.638 80.400,118.800 80.262,118.800 80.094 C 118.800 79.926,119.475 79.472,120.300 79.084 C 121.125 78.696,122.610 77.939,123.600 77.401 C 125.648 76.288,126.425 76.208,128.400 76.909 M119.000 104.400 C 118.560 104.589,117.591 104.756,116.846 104.772 C 116.102 104.787,114.752 104.994,113.846 105.232 C 112.941 105.469,111.480 105.843,110.600 106.063 C 107.559 106.823,103.399 108.145,103.020 108.472 C 102.811 108.652,102.226 108.800,101.720 108.800 C 101.214 108.800,100.800 108.980,100.800 109.200 C 100.800 109.420,100.440 109.600,100.000 109.600 C 99.560 109.600,99.200 109.780,99.200 110.000 C 99.200 110.220,98.935 110.400,98.612 110.400 C 98.289 110.400,97.389 110.760,96.612 111.200 C 95.835 111.640,94.539 112.374,93.731 112.832 C 89.892 115.006,83.731 119.652,80.400 122.884 C 78.166 125.052,75.237 128.468,73.614 130.800 C 73.077 131.570,72.521 132.290,72.377 132.400 C 71.359 133.178,65.200 144.918,65.200 146.081 C 65.200 146.388,65.051 146.811,64.870 147.020 C 64.688 147.229,64.307 148.210,64.024 149.200 C 63.741 150.190,63.363 151.360,63.185 151.800 C 62.044 154.613,60.659 164.572,60.652 170.000 C 60.647 174.589,61.728 182.954,62.797 186.600 C 63.055 187.480,63.362 188.697,63.479 189.305 C 63.596 189.913,63.851 190.508,64.046 190.629 C 64.241 190.749,64.400 191.199,64.400 191.629 C 64.400 192.059,64.565 192.723,64.766 193.105 C 64.968 193.487,65.437 194.520,65.809 195.400 C 67.540 199.493,71.468 206.746,72.416 207.600 C 72.539 207.710,73.077 208.430,73.612 209.200 C 75.653 212.135,81.438 218.201,84.600 220.722 C 87.593 223.108,90.966 225.554,91.984 226.077 C 92.543 226.364,93.090 226.694,93.200 226.810 C 94.524 228.210,105.173 232.471,111.000 233.934 C 117.813 235.644,130.229 236.246,136.176 235.155 C 145.596 233.428,157.483 229.116,160.575 226.305 C 161.002 225.917,161.587 225.600,161.875 225.600 C 162.164 225.600,162.400 225.420,162.400 225.200 C 162.400 224.980,162.636 224.800,162.925 224.800 C 163.213 224.800,163.798 224.480,164.225 224.089 C 164.651 223.698,165.630 222.938,166.400 222.401 C 169.826 220.008,176.414 213.430,178.818 210.000 C 179.358 209.230,179.916 208.510,180.059 208.400 C 181.202 207.516,188.000 194.852,188.000 193.605 C 188.000 193.376,188.159 192.877,188.353 192.495 C 189.028 191.169,189.541 189.794,189.770 188.700 C 189.896 188.095,190.104 187.105,190.230 186.500 C 190.357 185.895,190.616 185.040,190.807 184.600 C 191.988 181.878,192.664 170.888,192.050 164.400 C 191.395 157.491,191.158 155.837,190.761 155.420 C 190.563 155.211,190.400 154.457,190.400 153.744 C 190.400 153.031,190.220 152.336,190.000 152.200 C 189.780 152.064,189.600 151.511,189.600 150.971 C 189.600 150.431,189.420 149.632,189.200 149.195 C 188.980 148.758,188.620 148.042,188.400 147.605 C 188.180 147.168,188.000 146.622,188.000 146.390 C 188.000 144.461,180.532 131.563,177.236 127.800 C 172.664 122.580,164.995 115.948,161.400 114.104 C 160.740 113.765,160.110 113.374,160.000 113.233 C 159.890 113.093,157.820 112.020,155.400 110.849 C 152.980 109.678,150.687 108.558,150.305 108.360 C 149.923 108.162,149.284 108.000,148.885 108.000 C 148.486 108.000,147.989 107.851,147.780 107.670 C 147.422 107.358,145.966 106.902,142.500 106.017 C 140.836 105.591,138.237 105.070,134.576 104.426 C 131.716 103.923,120.154 103.904,119.000 104.400 M129.400 130.651 C 130.060 130.954,131.140 131.698,131.800 132.304 C 132.881 133.296,144.676 144.034,149.211 148.155 C 171.532 168.433,171.262 168.093,168.614 172.613 C 166.305 176.552,161.488 176.767,157.700 173.101 L 156.400 171.843 156.400 187.795 C 156.400 209.814,156.856 209.000,144.530 209.000 C 132.348 209.000,132.800 209.729,132.800 190.067 C 132.800 171.674,132.384 170.406,126.350 170.401 C 120.918 170.398,120.400 172.071,120.400 189.600 C 120.400 209.395,120.515 209.209,108.250 209.191 C 100.885 209.181,99.496 208.730,97.777 205.798 L 96.678 203.922 96.983 197.061 C 97.467 186.144,97.868 171.828,97.698 171.491 C 97.612 171.322,96.700 171.925,95.671 172.832 C 92.155 175.930,89.956 176.523,87.203 175.117 C 82.262 172.594,82.307 167.798,87.315 163.229 C 88.462 162.183,91.650 159.285,94.400 156.788 C 100.225 151.501,106.452 145.828,108.000 144.400 C 108.596 143.850,110.685 141.960,112.642 140.200 C 116.565 136.672,120.888 132.722,121.200 132.381 C 123.361 130.015,126.550 129.343,129.400 130.651 M308.029 137.256 C 312.998 138.745,314.018 145.782,309.657 148.494 L 308.200 149.400 274.075 149.509 C 237.517 149.625,237.491 149.624,235.603 147.603 C 232.494 144.275,233.944 138.460,238.190 137.224 C 240.089 136.672,306.179 136.702,308.029 137.256 M363.200 137.702 C 367.407 139.811,367.761 145.719,363.847 148.510 C 362.571 149.421,334.358 150.147,329.289 149.400 C 323.000 148.473,322.190 139.544,328.200 137.394 C 330.808 136.461,361.259 136.729,363.200 137.702 M123.688 147.300 C 122.443 148.455,121.222 149.580,120.975 149.800 C 118.255 152.220,116.772 153.705,116.923 153.856 C 117.024 153.958,121.583 154.138,127.054 154.258 L 137.000 154.475 134.792 152.338 C 126.513 144.321,126.773 144.439,123.688 147.300 M363.199 171.000 C 366.515 172.714,367.633 177.307,365.436 180.188 C 363.281 183.014,368.639 182.800,299.958 182.800 L 237.876 182.800 236.490 181.743 C 232.691 178.846,233.104 173.126,237.260 171.079 C 239.214 170.116,361.341 170.039,363.199 171.000 M285.732 204.921 C 289.651 207.911,289.254 213.507,284.974 215.603 C 282.392 216.868,239.960 216.839,237.341 215.572 C 232.156 213.061,232.965 205.342,238.558 203.971 C 239.241 203.803,249.804 203.696,262.032 203.733 L 284.263 203.800 285.732 204.921 M361.749 203.978 C 367.376 205.284,368.330 212.983,363.190 215.605 C 361.160 216.641,306.292 216.867,303.857 215.850 C 298.205 213.488,298.922 205.411,304.910 203.988 C 306.741 203.553,359.877 203.544,361.749 203.978 M333.657 251.506 C 337.444 253.861,337.444 259.739,333.657 262.094 L 332.200 263.000 300.200 263.000 C 264.431 263.000,266.874 263.195,264.894 260.175 C 262.663 256.771,264.866 251.419,268.800 250.686 C 269.350 250.583,283.840 250.522,301.000 250.550 L 332.200 250.600 333.657 251.506 " stroke="none" fill="#f1f1f1" fill-rule="evenodd"></path><path id="path1" d="M125.044 130.278 C 123.301 130.744,122.734 131.214,111.603 141.400 C 110.160 142.720,107.185 145.443,104.990 147.451 C 102.796 149.459,100.113 151.889,99.029 152.851 C 97.945 153.813,96.676 154.960,96.210 155.400 C 93.569 157.890,90.276 160.884,87.915 162.943 C 83.816 166.519,82.901 168.921,84.413 172.138 C 86.506 176.591,91.940 176.646,95.970 172.256 C 98.220 169.805,98.375 172.779,97.231 196.600 C 96.705 207.539,97.808 208.900,107.400 209.141 C 120.147 209.462,120.067 209.586,120.377 188.789 C 120.598 173.919,120.609 173.768,121.515 172.617 C 123.545 170.038,126.400 169.348,129.279 170.741 C 132.614 172.356,132.573 172.140,132.800 189.400 C 133.062 209.337,132.816 208.879,143.400 209.137 C 156.144 209.447,156.000 209.690,156.000 187.926 C 156.000 171.388,156.033 171.131,157.933 172.916 C 161.714 176.468,165.856 176.414,168.260 172.781 C 170.702 169.091,169.830 167.180,162.794 160.800 C 160.490 158.710,157.724 156.190,156.648 155.200 C 155.572 154.210,154.491 153.218,154.246 152.996 C 153.513 152.331,140.638 140.633,140.163 140.200 C 139.921 139.980,137.959 138.180,135.802 136.200 C 129.725 130.623,127.773 129.548,125.044 130.278 M132.147 149.560 C 134.911 152.068,137.078 154.273,136.963 154.460 C 136.500 155.210,116.800 154.552,116.800 153.787 C 116.800 153.112,126.051 144.746,126.642 144.886 C 126.906 144.949,129.383 147.052,132.147 149.560 " stroke="none" fill="#6ddce4" fill-rule="evenodd"></path><path id="path2" d="M125.023 77.495 C 124.375 77.590,123.083 78.193,122.151 78.834 C 121.218 79.475,120.361 80.000,120.246 80.000 C 120.130 80.000,119.082 80.567,117.918 81.261 C 116.753 81.954,113.460 83.884,110.600 85.551 L 105.400 88.580 93.161 88.790 C 83.122 88.962,80.785 89.108,80.161 89.599 C 78.927 90.571,77.642 92.115,76.996 93.400 C 76.664 94.060,75.846 95.500,75.178 96.600 C 74.511 97.700,73.862 98.915,73.736 99.300 C 73.610 99.685,73.348 100.000,73.153 100.000 C 72.959 100.000,72.800 100.156,72.800 100.348 C 72.800 101.312,67.329 110.162,66.238 110.963 C 65.557 111.463,61.261 114.013,56.692 116.630 C 44.434 123.651,45.600 121.562,45.600 136.494 C 45.600 142.963,45.437 148.411,45.238 148.620 C 45.038 148.829,44.515 149.650,44.075 150.445 C 42.555 153.191,42.199 153.801,42.000 154.000 C 41.800 154.200,40.269 157.010,39.440 158.697 C 39.198 159.190,38.865 159.595,38.700 159.597 C 38.535 159.599,38.400 159.766,38.400 159.968 C 38.400 160.171,37.509 161.880,36.419 163.767 C 32.706 170.197,32.690 170.094,39.061 180.693 C 40.017 182.284,40.800 183.769,40.800 183.993 C 40.800 184.217,40.936 184.400,41.102 184.400 C 41.269 184.400,41.657 184.985,41.965 185.700 C 42.273 186.415,42.836 187.450,43.216 188.000 C 45.682 191.573,45.600 191.033,45.600 203.618 C 45.600 217.687,45.251 216.730,51.748 220.486 C 54.140 221.869,56.840 223.430,57.748 223.957 C 60.049 225.289,61.748 226.259,63.500 227.240 C 67.068 229.238,67.412 229.646,70.906 236.000 C 71.571 237.210,72.250 238.380,72.415 238.600 C 72.580 238.820,73.094 239.675,73.557 240.500 C 74.021 241.325,74.788 242.675,75.262 243.500 C 75.735 244.325,76.479 245.657,76.914 246.460 C 79.125 250.539,80.032 250.939,87.500 251.130 C 91.682 251.237,93.614 251.429,93.645 251.743 C 93.669 251.994,93.714 267.140,93.745 285.400 C 93.805 321.373,93.684 319.400,95.944 321.446 C 98.256 323.540,100.708 323.541,103.800 321.448 C 104.959 320.664,119.981 309.509,121.200 308.527 C 126.741 304.067,126.353 304.099,130.800 307.723 C 131.130 307.991,132.030 308.650,132.800 309.186 C 133.570 309.723,134.290 310.269,134.400 310.400 C 134.510 310.531,135.230 311.071,136.000 311.600 C 136.770 312.129,137.490 312.669,137.600 312.800 C 137.710 312.931,138.430 313.477,139.200 314.014 C 139.970 314.550,140.870 315.212,141.200 315.484 C 144.469 318.183,150.524 322.314,151.800 322.715 C 154.178 323.463,156.695 322.469,158.318 320.141 L 159.195 318.883 159.298 285.141 L 159.400 251.400 165.600 251.187 C 173.346 250.920,173.761 250.687,177.152 244.698 C 177.618 243.874,178.385 242.525,178.857 241.700 C 179.328 240.875,180.163 239.390,180.714 238.400 C 184.067 232.370,186.198 229.073,186.854 228.902 C 187.264 228.795,187.600 228.581,187.600 228.428 C 187.600 228.275,188.230 227.902,189.000 227.600 C 189.770 227.298,190.400 226.925,190.400 226.772 C 190.400 226.619,190.715 226.387,191.100 226.258 C 191.485 226.128,192.340 225.698,193.000 225.302 C 197.466 222.623,199.287 221.600,199.588 221.600 C 199.778 221.600,199.993 221.465,200.067 221.300 C 200.140 221.135,201.010 220.569,202.000 220.042 C 207.668 217.027,207.600 217.229,207.600 203.379 L 207.600 192.081 208.730 189.941 C 210.150 187.250,210.943 185.856,211.201 185.600 C 211.311 185.490,211.671 184.860,212.001 184.200 C 212.330 183.540,213.468 181.571,214.529 179.824 C 220.217 170.456,220.312 168.884,215.606 162.000 C 215.230 161.450,214.381 160.010,213.720 158.800 C 213.059 157.590,212.148 155.950,211.697 155.155 C 211.245 154.360,210.633 153.280,210.338 152.755 C 210.042 152.230,209.710 151.710,209.600 151.600 C 207.805 149.805,207.600 148.256,207.600 136.517 C 207.600 121.955,208.345 123.511,198.714 117.954 C 194.754 115.669,190.679 113.302,189.657 112.692 C 188.636 112.083,187.420 111.422,186.955 111.223 C 186.234 110.915,184.129 107.641,180.445 101.100 C 179.980 100.275,179.240 98.970,178.800 98.200 C 178.360 97.430,177.619 96.125,177.153 95.300 C 176.687 94.475,175.967 93.322,175.553 92.738 C 175.139 92.154,174.800 91.556,174.800 91.410 C 174.800 91.014,173.916 90.202,172.792 89.563 C 172.024 89.127,169.090 88.955,159.800 88.800 L 147.800 88.600 145.800 87.439 C 144.700 86.800,141.640 85.021,139.000 83.484 C 134.143 80.657,132.653 79.797,130.300 78.463 C 128.818 77.623,126.743 77.243,125.023 77.495 M132.200 103.602 C 137.228 104.064,139.763 104.500,143.800 105.597 C 145.560 106.075,147.408 106.562,147.906 106.681 C 148.404 106.799,148.910 107.054,149.030 107.248 C 149.149 107.441,149.552 107.605,149.924 107.610 C 150.296 107.616,152.038 108.336,153.796 109.210 C 155.553 110.085,157.115 110.800,157.266 110.800 C 157.418 110.800,159.039 111.716,160.871 112.836 C 174.662 121.272,184.673 133.859,189.974 149.427 C 190.428 150.761,190.800 152.236,190.800 152.703 C 190.800 153.170,190.956 153.649,191.147 153.767 C 191.338 153.885,191.621 154.841,191.776 155.891 C 191.930 156.941,192.248 158.880,192.482 160.200 C 193.040 163.361,193.033 176.695,192.470 180.000 C 192.053 182.448,191.725 183.937,190.818 187.500 C 190.608 188.325,190.316 189.498,190.170 190.106 C 190.024 190.714,189.746 191.310,189.552 191.430 C 189.359 191.549,189.200 191.999,189.200 192.429 C 189.200 192.859,189.047 193.523,188.861 193.905 C 181.674 208.621,176.056 216.156,167.600 222.415 C 166.390 223.311,165.083 224.304,164.695 224.622 C 164.308 224.940,163.813 225.200,163.595 225.200 C 163.378 225.200,163.200 225.380,163.200 225.600 C 163.200 225.820,163.007 226.000,162.772 226.000 C 162.537 226.000,161.592 226.508,160.672 227.129 C 148.225 235.536,126.638 238.861,111.000 234.780 C 104.267 233.023,98.154 230.603,93.400 227.812 C 92.300 227.167,91.310 226.539,91.200 226.419 C 91.090 226.298,90.508 225.945,89.907 225.635 C 89.305 225.326,88.495 224.781,88.107 224.425 C 87.718 224.069,86.770 223.339,86.000 222.803 C 82.912 220.651,77.250 215.068,73.930 210.902 C 70.601 206.724,65.601 197.845,64.412 194.000 C 64.106 193.010,63.741 192.020,63.600 191.800 C 63.361 191.427,62.780 189.529,62.191 187.200 C 61.311 183.719,61.098 182.755,60.734 180.600 C 60.089 176.770,59.868 164.570,60.386 161.400 C 61.198 156.438,61.662 154.216,62.035 153.505 C 62.236 153.123,62.400 152.457,62.400 152.024 C 62.400 151.592,62.564 150.824,62.765 150.319 C 62.966 149.813,63.527 148.320,64.013 147.000 C 69.215 132.860,80.277 119.629,92.910 112.438 C 96.524 110.380,98.905 109.200,99.441 109.200 C 99.748 109.200,100.000 109.059,100.000 108.887 C 100.000 108.715,100.855 108.329,101.900 108.029 C 102.945 107.729,103.980 107.362,104.200 107.214 C 104.420 107.066,105.410 106.711,106.400 106.426 C 107.390 106.141,108.650 105.765,109.200 105.592 C 115.179 103.706,124.528 102.898,132.200 103.602 " stroke="none" fill="#fa8b7b" fill-rule="evenodd"></path><path id="path3" d="M236.908 138.525 C 232.959 141.201,234.124 147.541,238.797 148.799 C 239.837 149.079,251.513 149.182,274.076 149.109 L 307.800 149.000 309.225 148.114 C 312.691 145.958,312.780 140.714,309.389 138.500 L 308.011 137.600 273.106 137.625 L 238.200 137.650 236.908 138.525 M326.732 138.900 C 323.307 142.154,323.903 146.599,328.000 148.362 C 330.265 149.336,358.502 149.667,361.777 148.758 C 366.723 147.384,367.466 140.468,362.926 138.063 C 362.304 137.733,357.161 137.600,345.077 137.600 L 328.101 137.600 326.732 138.900 M238.685 171.085 C 233.613 171.864,233.190 180.103,238.126 181.973 C 240.145 182.738,360.806 182.554,362.692 181.784 C 366.710 180.142,367.172 174.546,363.506 171.932 L 362.200 171.000 301.000 170.957 C 267.340 170.933,239.298 170.991,238.685 171.085 M238.200 204.593 C 233.812 206.559,233.226 212.458,237.175 214.914 L 238.600 215.800 261.200 215.800 C 282.737 215.800,283.859 215.764,285.062 215.036 C 288.904 212.711,288.772 206.876,284.834 204.914 C 282.916 203.959,240.271 203.664,238.200 204.593 M304.600 204.482 C 298.274 206.693,299.666 215.091,306.475 215.790 C 312.669 216.426,361.734 215.836,363.061 215.110 C 367.084 212.908,366.910 207.045,362.758 204.922 L 361.000 204.023 333.400 204.043 C 315.234 204.056,305.390 204.206,304.600 204.482 M267.345 251.877 C 263.875 253.607,263.495 257.897,266.526 261.100 L 267.757 262.400 300.238 262.400 L 332.720 262.400 334.105 261.015 C 336.781 258.339,336.493 254.442,333.446 252.091 L 332.292 251.200 300.446 251.226 C 272.391 251.248,268.451 251.326,267.345 251.877 " stroke="none" fill="#bcbcbc" fill-rule="evenodd"></path><path id="path4" d="M124.891 76.736 C 124.595 76.923,125.207 77.047,126.351 77.029 C 127.435 77.013,128.114 76.868,127.861 76.706 C 127.247 76.315,125.527 76.332,124.891 76.736 M129.200 77.390 C 129.200 77.494,129.785 77.865,130.500 78.214 L 131.800 78.848 130.800 78.033 C 129.837 77.248,129.200 76.992,129.200 77.390 M115.500 81.829 C 114.005 82.640,114.096 82.978,115.600 82.200 C 116.260 81.859,116.800 81.494,116.800 81.390 C 116.800 81.132,116.757 81.147,115.500 81.829 M137.600 82.190 C 137.600 82.294,138.185 82.665,138.900 83.014 L 140.200 83.648 139.200 82.833 C 138.237 82.048,137.600 81.792,137.600 82.190 M112.600 83.600 C 111.940 84.037,111.580 84.392,111.800 84.388 C 112.201 84.382,114.376 82.823,114.000 82.812 C 113.890 82.808,113.260 83.163,112.600 83.600 M141.200 84.367 C 142.163 85.152,142.800 85.408,142.800 85.010 C 142.800 84.906,142.215 84.535,141.500 84.186 L 140.200 83.552 141.200 84.367 M109.800 85.200 C 109.140 85.637,108.780 85.992,109.000 85.988 C 109.401 85.982,111.576 84.423,111.200 84.412 C 111.090 84.408,110.460 84.763,109.800 85.200 M144.000 85.964 C 144.550 86.414,145.180 86.783,145.400 86.785 C 145.828 86.788,145.105 86.234,143.800 85.560 C 143.269 85.285,143.336 85.421,144.000 85.964 M107.000 86.800 C 106.340 87.237,105.980 87.592,106.200 87.588 C 106.601 87.582,108.776 86.023,108.400 86.012 C 108.290 86.008,107.660 86.363,107.000 86.800 M146.000 86.979 C 146.000 88.120,148.682 88.400,159.599 88.400 C 170.007 88.400,170.961 88.459,172.489 89.197 C 173.396 89.636,174.205 89.929,174.285 89.849 C 174.365 89.768,173.616 89.319,172.620 88.851 C 170.907 88.046,170.200 88.000,159.584 88.000 C 150.306 88.000,148.156 87.894,147.180 87.390 C 146.531 87.054,146.000 86.869,146.000 86.979 M93.400 87.987 C 80.892 88.212,80.060 88.328,78.600 90.054 L 77.800 91.000 78.615 90.315 C 80.730 88.537,81.817 88.400,93.764 88.400 C 100.925 88.400,105.245 88.252,105.400 88.000 C 105.536 87.780,105.592 87.639,105.524 87.686 C 105.456 87.733,100.000 87.869,93.400 87.987 M175.081 91.361 C 175.477 91.889,175.857 92.267,175.928 92.200 C 176.138 91.999,175.034 90.400,174.685 90.400 C 174.508 90.400,174.686 90.832,175.081 91.361 M76.464 92.857 C 75.266 95.102,75.571 95.189,76.905 92.981 C 77.496 92.001,77.838 91.200,77.664 91.200 C 77.491 91.200,76.951 91.945,76.464 92.857 M177.160 94.600 C 177.834 95.905,178.388 96.628,178.385 96.200 C 178.383 95.980,178.014 95.350,177.564 94.800 C 177.021 94.136,176.885 94.069,177.160 94.600 M73.814 97.435 C 73.441 98.004,73.227 98.561,73.339 98.672 C 73.450 98.783,73.829 98.318,74.181 97.637 C 74.959 96.133,74.744 96.015,73.814 97.435 M179.086 98.000 C 179.534 98.770,180.927 101.200,182.182 103.400 C 183.437 105.600,184.658 107.580,184.896 107.800 C 185.133 108.020,184.962 107.570,184.514 106.800 C 184.066 106.030,182.673 103.600,181.418 101.400 C 180.163 99.200,178.942 97.220,178.704 97.000 C 178.467 96.780,178.638 97.230,179.086 98.000 M72.254 100.174 C 71.902 100.710,71.226 101.835,70.750 102.674 C 70.274 103.514,69.364 105.100,68.728 106.200 C 68.092 107.300,67.389 108.560,67.166 109.000 C 66.747 109.828,64.320 111.600,63.606 111.600 C 63.383 111.600,63.200 111.785,63.200 112.012 C 63.200 112.845,66.500 110.549,67.632 108.928 C 68.274 108.008,68.800 107.136,68.800 106.990 C 68.800 106.843,69.133 106.246,69.539 105.662 C 70.594 104.146,73.305 99.200,73.080 99.200 C 72.977 99.200,72.605 99.639,72.254 100.174 M125.507 103.890 C 126.226 103.979,127.306 103.977,127.907 103.886 C 128.508 103.795,127.920 103.722,126.600 103.724 C 125.280 103.726,124.788 103.801,125.507 103.890 M116.800 104.400 C 115.825 104.712,115.830 104.721,117.000 104.732 C 117.660 104.738,118.560 104.589,119.000 104.400 C 120.094 103.930,118.267 103.930,116.800 104.400 M134.000 104.400 C 134.550 104.576,135.540 104.720,136.200 104.720 C 137.367 104.720,137.372 104.711,136.400 104.400 C 135.850 104.224,134.860 104.080,134.200 104.080 C 133.033 104.080,133.028 104.089,134.000 104.400 M112.200 105.200 C 111.471 105.513,111.488 105.544,112.400 105.544 C 112.950 105.544,113.760 105.389,114.200 105.200 C 114.929 104.887,114.912 104.856,114.000 104.856 C 113.450 104.856,112.640 105.011,112.200 105.200 M139.000 105.200 C 139.440 105.389,140.160 105.544,140.600 105.544 L 141.400 105.544 140.600 105.200 C 140.160 105.011,139.440 104.856,139.000 104.856 L 138.200 104.856 139.000 105.200 M109.400 106.000 L 108.600 106.344 109.400 106.366 C 109.840 106.378,110.470 106.213,110.800 106.000 C 111.595 105.486,110.596 105.486,109.400 106.000 M142.400 106.000 C 142.730 106.213,143.360 106.378,143.800 106.366 L 144.600 106.344 143.800 106.000 C 142.604 105.486,141.605 105.486,142.400 106.000 M106.400 106.800 C 105.867 107.145,105.867 107.188,106.400 107.188 C 106.730 107.188,107.270 107.013,107.600 106.800 C 108.133 106.455,108.133 106.412,107.600 106.412 C 107.270 106.412,106.730 106.587,106.400 106.800 M145.600 106.800 C 145.930 107.013,146.470 107.188,146.800 107.188 C 147.333 107.188,147.333 107.145,146.800 106.800 C 146.470 106.587,145.930 106.412,145.600 106.412 C 145.067 106.412,145.067 106.455,145.600 106.800 M104.000 107.600 C 103.467 107.945,103.467 107.988,104.000 107.988 C 104.330 107.988,104.870 107.813,105.200 107.600 C 105.733 107.255,105.733 107.212,105.200 107.212 C 104.870 107.212,104.330 107.387,104.000 107.600 M101.800 108.400 C 101.029 108.731,101.031 108.745,101.876 108.772 C 102.358 108.787,102.864 108.620,103.000 108.400 C 103.292 107.927,102.901 107.927,101.800 108.400 M152.000 108.962 C 152.000 109.051,153.755 109.989,155.900 111.045 C 158.045 112.101,159.890 113.083,160.000 113.227 C 160.110 113.371,160.740 113.765,161.400 114.104 C 165.017 115.959,173.238 123.076,177.155 127.742 C 177.867 128.590,178.533 129.200,178.635 129.098 C 178.950 128.783,171.631 121.276,168.635 118.841 C 163.212 114.434,152.000 107.776,152.000 108.962 M95.794 111.246 C 90.054 114.293,80.400 121.441,80.400 122.645 C 80.400 122.819,81.075 122.328,81.900 121.554 C 85.828 117.865,91.575 113.830,96.500 111.305 C 97.105 110.995,97.600 110.665,97.600 110.571 C 97.600 110.305,97.491 110.345,95.794 111.246 M56.400 115.863 C 53.870 117.322,51.103 118.895,50.251 119.358 C 49.399 119.821,48.129 120.740,47.428 121.400 C 46.727 122.060,46.524 122.303,46.977 121.939 C 47.430 121.575,48.430 120.924,49.200 120.490 C 49.970 120.057,52.220 118.756,54.200 117.600 C 56.180 116.444,58.430 115.143,59.200 114.711 C 60.558 113.948,61.547 113.195,61.180 113.204 C 61.081 113.207,58.930 114.403,56.400 115.863 M191.600 113.390 C 191.600 113.494,192.185 113.865,192.900 114.214 L 194.200 114.848 193.200 114.033 C 192.237 113.248,191.600 112.992,191.600 113.390 M194.400 114.979 C 194.400 115.089,194.940 115.459,195.600 115.800 C 196.260 116.141,196.800 116.331,196.800 116.221 C 196.800 116.111,196.260 115.741,195.600 115.400 C 194.940 115.059,194.400 114.869,194.400 114.979 M197.200 116.579 C 197.200 116.689,197.740 117.059,198.400 117.400 C 199.060 117.741,199.600 117.931,199.600 117.821 C 199.600 117.711,199.060 117.341,198.400 117.000 C 197.740 116.659,197.200 116.469,197.200 116.579 M200.200 118.290 C 200.420 118.498,201.500 119.159,202.600 119.759 C 203.700 120.359,204.240 120.555,203.800 120.194 C 202.905 119.459,199.573 117.697,200.200 118.290 M207.055 123.400 C 207.980 124.979,208.000 125.003,208.000 124.511 C 208.000 124.279,207.629 123.664,207.176 123.144 L 206.353 122.200 207.055 123.400 M76.893 126.122 C 73.776 129.664,71.774 132.400,72.299 132.400 C 72.480 132.400,72.920 131.905,73.279 131.300 C 73.637 130.695,74.260 129.815,74.665 129.343 C 75.069 128.872,75.760 128.034,76.200 127.481 C 76.640 126.929,77.693 125.727,78.540 124.812 C 79.388 123.896,80.013 123.079,79.929 122.996 C 79.846 122.912,78.479 124.319,76.893 126.122 M44.700 125.733 C 44.535 126.136,44.400 131.455,44.400 137.553 C 44.400 145.556,44.268 148.772,43.927 149.113 C 43.666 149.374,43.563 149.696,43.697 149.831 C 44.838 150.971,45.210 147.396,45.106 136.308 C 45.048 130.089,44.865 125.330,44.700 125.733 M208.088 137.120 C 208.002 147.751,208.386 151.348,209.486 150.247 C 209.612 150.122,209.463 149.718,209.157 149.349 C 208.722 148.826,208.553 146.214,208.388 137.439 L 208.175 126.200 208.088 137.120 M179.064 130.000 C 179.249 130.330,180.452 132.199,181.737 134.153 C 183.917 137.469,188.000 145.447,188.000 146.390 C 188.000 146.622,188.167 147.123,188.371 147.505 C 188.575 147.887,188.849 148.541,188.980 148.957 C 189.111 149.374,189.312 149.622,189.425 149.508 C 189.966 148.968,185.781 139.754,182.905 135.150 C 181.271 132.535,178.095 128.277,179.064 130.000 M69.853 135.591 C 68.721 137.302,68.425 138.318,69.443 137.000 C 70.182 136.044,71.285 134.000,71.063 134.000 C 70.977 134.000,70.432 134.716,69.853 135.591 M66.624 141.700 C 64.145 146.992,60.946 156.843,62.370 154.800 C 62.600 154.470,62.791 153.793,62.794 153.295 C 62.797 152.797,62.962 152.077,63.161 151.695 C 63.360 151.313,63.751 150.190,64.031 149.200 C 64.310 148.210,64.688 147.229,64.870 147.020 C 65.051 146.811,65.200 146.388,65.200 146.081 C 65.200 145.654,67.382 140.788,68.690 138.300 C 68.776 138.135,68.737 138.000,68.602 138.000 C 68.468 138.000,67.577 139.665,66.624 141.700 M189.600 150.910 C 189.600 151.483,189.787 152.068,190.016 152.210 C 190.289 152.379,190.338 152.077,190.160 151.334 C 189.792 149.801,189.600 149.656,189.600 150.910 M42.614 151.435 C 42.241 152.004,42.027 152.561,42.139 152.672 C 42.250 152.783,42.629 152.318,42.981 151.637 C 43.759 150.133,43.544 150.015,42.614 151.435 M209.960 151.400 C 210.634 152.705,211.188 153.428,211.185 153.000 C 211.183 152.780,210.814 152.150,210.364 151.600 C 209.821 150.936,209.685 150.869,209.960 151.400 M190.440 153.876 C 190.418 154.578,190.580 155.264,190.800 155.400 C 191.260 155.684,191.260 155.036,190.800 153.600 C 190.494 152.645,190.478 152.657,190.440 153.876 M41.468 153.500 C 41.369 153.665,40.931 154.430,40.495 155.200 C 40.059 155.970,38.755 158.220,37.597 160.200 C 33.347 167.467,33.200 167.795,33.200 170.022 C 33.200 171.755,33.487 172.614,34.850 174.960 C 36.696 178.136,37.649 179.786,38.743 181.700 C 39.152 182.415,39.970 183.810,40.561 184.800 C 41.152 185.790,41.738 186.915,41.864 187.300 C 41.990 187.685,42.267 188.000,42.479 188.000 C 42.692 188.000,42.512 187.415,42.080 186.700 C 32.259 170.446,32.014 169.302,36.861 162.338 C 37.267 161.754,37.600 161.152,37.600 161.000 C 37.600 160.848,37.933 160.246,38.339 159.662 C 39.448 158.069,42.100 153.200,41.858 153.200 C 41.742 153.200,41.566 153.335,41.468 153.500 M212.221 155.400 C 213.520 157.818,214.403 159.116,214.391 158.589 C 214.386 158.375,214.030 157.750,213.600 157.200 C 213.170 156.650,212.810 156.020,212.800 155.800 C 212.790 155.580,212.414 154.950,211.964 154.400 C 211.361 153.663,211.429 153.927,212.221 155.400 M61.664 156.050 C 61.629 156.408,61.498 157.308,61.373 158.050 C 61.188 159.155,61.229 159.271,61.598 158.691 C 61.846 158.302,61.977 157.402,61.889 156.691 C 61.800 155.981,61.699 155.692,61.664 156.050 M191.206 157.433 C 191.209 158.295,191.397 159.270,191.623 159.600 C 191.914 160.026,191.955 159.620,191.765 158.200 C 191.431 155.703,191.198 155.384,191.206 157.433 M215.441 161.000 C 216.041 162.100,216.702 163.180,216.910 163.400 C 217.503 164.027,215.741 160.695,215.006 159.800 C 214.645 159.360,214.841 159.900,215.441 161.000 M60.627 162.838 C 60.457 164.509,60.395 166.219,60.490 166.638 C 60.585 167.057,60.802 166.033,60.973 164.362 C 61.143 162.691,61.205 160.981,61.110 160.562 C 61.015 160.143,60.798 161.167,60.627 162.838 M192.076 163.600 C 192.060 165.030,192.195 166.920,192.377 167.800 C 192.842 170.048,192.877 165.947,192.418 163.000 L 192.107 161.000 192.076 163.600 M192.300 172.556 C 192.135 173.632,192.022 175.522,192.049 176.756 L 192.098 179.000 192.457 176.600 C 192.654 175.280,192.767 173.390,192.708 172.400 L 192.600 170.600 192.300 172.556 M60.480 174.600 C 60.468 175.700,60.603 177.410,60.780 178.400 L 61.100 180.200 61.120 178.200 C 61.132 177.100,60.997 175.390,60.820 174.400 L 60.500 172.600 60.480 174.600 M217.814 174.635 C 217.441 175.204,217.205 175.738,217.289 175.822 C 217.373 175.907,217.758 175.441,218.144 174.788 C 219.006 173.328,218.748 173.209,217.814 174.635 M216.200 177.600 C 215.859 178.260,215.669 178.800,215.779 178.800 C 215.889 178.800,216.259 178.260,216.600 177.600 C 216.941 176.940,217.131 176.400,217.021 176.400 C 216.911 176.400,216.541 176.940,216.200 177.600 M191.473 180.553 C 191.323 180.945,191.220 181.926,191.244 182.733 L 191.288 184.200 191.642 182.400 C 192.022 180.470,191.922 179.383,191.473 180.553 M61.253 181.200 C 61.342 183.350,61.900 184.799,61.947 183.000 C 61.969 182.120,61.813 181.130,61.600 180.800 C 61.296 180.329,61.221 180.415,61.253 181.200 M212.894 183.300 C 211.218 186.127,210.364 187.786,211.077 186.831 C 212.034 185.547,214.064 182.000,213.841 182.000 C 213.744 182.000,213.318 182.585,212.894 183.300 M190.679 184.800 C 190.409 185.555,190.004 187.439,189.776 189.000 C 189.679 189.660,189.959 189.030,190.398 187.600 C 191.076 185.392,191.314 183.021,190.679 184.800 M62.247 185.800 C 62.682 188.111,64.156 192.532,64.324 192.029 C 64.417 191.750,64.313 191.134,64.092 190.661 C 63.872 190.187,63.472 188.990,63.203 188.000 C 62.543 185.564,61.943 184.184,62.247 185.800 M209.453 189.300 L 208.733 190.600 209.558 189.600 C 210.289 188.713,210.614 188.000,210.286 188.000 C 210.224 188.000,209.849 188.585,209.453 189.300 M42.966 188.900 C 43.095 189.175,43.311 189.715,43.446 190.100 C 43.582 190.485,43.857 190.800,44.057 190.800 C 44.257 190.800,44.141 190.260,43.800 189.600 C 43.211 188.462,42.473 187.842,42.966 188.900 M188.980 191.043 C 188.849 191.459,188.575 192.113,188.371 192.495 C 188.167 192.877,188.000 193.376,188.000 193.605 C 188.000 194.852,181.202 207.516,180.059 208.400 C 179.916 208.510,179.358 209.230,178.818 210.000 C 176.414 213.430,169.826 220.008,166.400 222.401 C 165.630 222.938,164.651 223.698,164.225 224.089 C 163.798 224.480,163.213 224.800,162.925 224.800 C 162.636 224.800,162.400 224.936,162.400 225.102 C 162.400 225.269,161.860 225.644,161.200 225.936 C 160.540 226.228,160.000 226.636,160.000 226.843 C 160.000 227.366,164.120 224.688,167.869 221.729 C 175.206 215.938,181.706 207.890,185.903 199.400 C 187.721 195.723,189.686 190.753,189.425 190.492 C 189.312 190.378,189.111 190.626,188.980 191.043 M208.249 191.415 C 208.112 191.773,208.039 196.956,208.088 202.933 L 208.175 213.800 208.388 202.400 C 208.616 190.143,208.620 190.450,208.249 191.415 M44.406 202.476 C 44.410 209.096,44.573 214.049,44.800 214.400 C 45.055 214.795,45.190 211.010,45.194 203.324 C 45.198 195.964,45.052 191.556,44.800 191.400 C 44.537 191.237,44.402 195.028,44.406 202.476 M64.608 193.650 C 65.430 196.311,69.792 204.636,71.392 206.600 C 72.323 207.742,71.528 206.140,69.811 203.413 C 69.114 202.306,67.965 200.140,67.256 198.600 C 66.547 197.060,65.795 195.487,65.584 195.105 C 65.373 194.723,65.200 194.149,65.200 193.829 C 65.200 193.509,65.001 193.124,64.757 192.974 C 64.453 192.786,64.406 192.998,64.608 193.650 M72.791 208.788 C 74.028 210.524,74.625 210.734,73.532 209.048 C 73.019 208.257,72.453 207.608,72.273 207.605 C 72.093 207.602,72.326 208.135,72.791 208.788 M74.851 211.500 C 75.774 212.678,79.289 216.392,81.400 218.421 C 84.784 221.672,93.200 227.742,93.200 226.930 C 93.200 226.746,92.705 226.372,92.100 226.099 C 91.035 225.618,87.890 223.358,84.600 220.708 C 81.977 218.596,77.476 214.165,76.196 212.435 C 75.538 211.546,74.843 210.815,74.651 210.809 C 74.459 210.804,74.549 211.115,74.851 211.500 M46.141 217.495 C 46.676 218.377,54.400 223.195,54.400 222.647 C 54.400 222.531,53.095 221.677,51.500 220.751 C 49.905 219.824,47.979 218.601,47.220 218.033 C 46.461 217.465,45.975 217.223,46.141 217.495 M202.300 220.229 C 200.805 221.040,200.896 221.378,202.400 220.600 C 203.060 220.259,203.600 219.894,203.600 219.790 C 203.600 219.532,203.557 219.547,202.300 220.229 M55.600 223.600 C 56.150 224.030,56.780 224.382,57.000 224.382 C 57.220 224.382,56.950 224.030,56.400 223.600 C 55.850 223.170,55.220 222.818,55.000 222.818 C 54.780 222.818,55.050 223.170,55.600 223.600 M196.700 223.429 C 196.095 223.757,195.600 224.110,195.600 224.213 C 195.600 224.599,196.232 224.357,197.200 223.600 C 198.389 222.670,198.211 222.609,196.700 223.429 M193.800 225.200 C 193.140 225.637,192.780 225.992,193.000 225.988 C 193.401 225.982,195.576 224.423,195.200 224.412 C 195.090 224.408,194.460 224.763,193.800 225.200 M59.200 225.521 C 59.200 225.733,59.515 226.007,59.900 226.129 C 60.585 226.346,62.804 227.604,63.200 228.000 C 63.310 228.110,64.115 228.593,64.989 229.072 C 66.305 229.795,67.088 230.827,69.539 235.072 C 71.167 237.893,72.935 240.920,73.467 241.800 C 74.000 242.680,74.538 243.715,74.664 244.100 C 74.790 244.485,75.067 244.800,75.279 244.800 C 75.492 244.800,75.313 244.215,74.883 243.500 C 74.190 242.350,70.849 236.570,68.741 232.874 C 67.168 230.116,66.644 229.564,64.255 228.142 C 62.905 227.338,61.215 226.333,60.500 225.908 C 59.785 225.483,59.200 225.308,59.200 225.521 M188.495 228.271 C 187.128 229.080,186.086 229.820,186.181 229.915 C 186.276 230.010,186.887 229.708,187.539 229.244 C 188.190 228.780,188.876 228.396,189.062 228.391 C 189.433 228.381,191.529 226.823,191.191 226.809 C 191.076 226.804,189.863 227.462,188.495 228.271 M93.600 227.360 C 93.600 227.702,97.649 229.684,97.879 229.455 C 98.040 229.294,96.632 228.521,93.900 227.271 C 93.735 227.195,93.600 227.235,93.600 227.360 M157.870 227.879 C 157.248 228.205,156.835 228.569,156.953 228.686 C 157.070 228.804,157.759 228.520,158.483 228.057 C 159.978 227.099,159.575 226.983,157.870 227.879 M102.200 231.479 C 103.105 232.376,111.381 234.665,117.093 235.598 C 120.729 236.191,132.666 236.204,136.051 235.618 C 139.622 235.000,142.427 234.400,143.600 234.003 C 144.150 233.817,145.116 233.552,145.747 233.413 C 146.378 233.274,146.816 233.083,146.721 232.988 C 146.626 232.892,144.759 233.240,142.574 233.760 C 135.693 235.397,133.933 235.600,126.622 235.600 C 117.822 235.600,112.709 234.808,105.400 232.311 C 104.080 231.860,102.730 231.399,102.400 231.287 C 102.002 231.151,101.935 231.216,102.200 231.479 M148.600 232.000 C 147.720 232.407,147.270 232.741,147.600 232.741 C 147.930 232.741,148.920 232.407,149.800 232.000 C 150.680 231.593,151.130 231.259,150.800 231.259 C 150.470 231.259,149.480 231.593,148.600 232.000 M183.165 234.900 C 182.246 236.495,181.158 238.385,180.747 239.100 C 180.336 239.815,179.625 241.030,179.167 241.800 C 178.709 242.570,178.508 243.200,178.721 243.200 C 178.933 243.200,179.213 242.885,179.342 242.500 C 179.472 242.115,179.902 241.260,180.299 240.600 C 183.687 234.959,185.315 232.000,185.032 232.000 C 184.924 232.000,184.084 233.305,183.165 234.900 M177.456 244.812 C 177.070 245.466,176.900 245.999,177.077 245.997 C 177.406 245.994,178.488 243.955,178.275 243.741 C 178.211 243.677,177.842 244.159,177.456 244.812 M75.769 245.600 C 75.896 245.930,76.111 246.515,76.246 246.900 C 76.382 247.285,76.659 247.600,76.861 247.600 C 77.224 247.600,76.875 246.806,75.983 245.600 C 75.588 245.067,75.565 245.067,75.769 245.600 M175.387 248.185 C 173.568 251.064,171.969 251.600,165.204 251.600 L 159.600 251.600 159.612 284.500 C 159.621 308.581,159.742 317.197,160.063 316.644 C 160.376 316.105,160.452 306.699,160.329 283.944 L 160.155 252.000 165.551 252.000 C 171.999 252.000,173.651 251.433,175.647 248.532 C 176.323 247.549,176.797 246.664,176.700 246.567 C 176.602 246.469,176.012 247.198,175.387 248.185 M77.200 248.283 C 77.200 248.833,79.225 250.621,80.680 251.354 C 81.670 251.854,83.187 252.000,87.380 252.000 L 92.800 252.000 92.800 284.776 C 92.800 302.803,92.935 317.636,93.100 317.737 C 93.265 317.839,93.403 303.000,93.406 284.761 L 93.412 251.600 87.955 251.600 C 81.863 251.600,80.255 251.186,78.327 249.122 C 77.707 248.458,77.200 248.081,77.200 248.283 M124.922 306.237 L 123.800 307.273 125.152 306.373 C 126.326 305.590,126.614 305.541,127.352 306.000 C 128.123 306.480,128.150 306.468,127.651 305.864 C 126.888 304.941,126.227 305.032,124.922 306.237 M121.985 308.418 L 120.600 309.635 122.095 308.718 C 122.917 308.213,123.592 307.665,123.595 307.500 C 123.603 307.037,123.469 307.113,121.985 308.418 M129.605 307.480 C 129.608 307.656,130.238 308.207,131.005 308.704 C 132.803 309.868,132.800 309.600,131.000 308.227 C 130.230 307.640,129.602 307.303,129.605 307.480 M118.785 310.818 L 117.400 312.035 118.895 311.118 C 119.717 310.613,120.392 310.065,120.395 309.900 C 120.403 309.437,120.269 309.513,118.785 310.818 M135.260 311.888 C 136.657 312.926,137.890 313.880,138.000 314.007 C 138.110 314.134,138.830 314.674,139.600 315.206 C 140.370 315.738,141.254 316.420,141.564 316.722 C 141.874 317.024,142.774 317.706,143.564 318.237 C 144.354 318.769,145.810 319.829,146.800 320.593 C 148.657 322.025,150.834 323.379,149.581 322.322 C 147.820 320.836,133.237 310.000,132.999 310.000 C 132.846 310.000,133.864 310.849,135.260 311.888 M115.300 313.320 C 114.380 314.024,112.766 315.229,111.713 315.997 C 110.661 316.766,109.710 317.495,109.600 317.617 C 109.490 317.739,108.770 318.274,108.000 318.806 C 107.230 319.338,106.380 319.987,106.111 320.248 C 105.841 320.508,104.977 321.120,104.190 321.606 C 103.402 322.093,102.852 322.586,102.968 322.701 C 103.084 322.817,103.768 322.467,104.489 321.923 C 105.210 321.379,108.320 319.070,111.400 316.792 C 114.480 314.514,117.075 312.594,117.167 312.525 C 117.258 312.456,117.253 312.319,117.154 312.220 C 117.055 312.122,116.221 312.617,115.300 313.320 M158.711 320.026 C 158.340 320.672,158.178 321.200,158.351 321.200 C 158.733 321.200,159.805 319.272,159.560 319.026 C 159.464 318.930,159.082 319.380,158.711 320.026 M95.288 321.826 C 95.886 322.449,96.469 322.864,96.583 322.750 C 96.697 322.636,96.207 322.127,95.495 321.619 L 94.200 320.695 95.288 321.826 M97.400 323.200 C 97.536 323.420,98.042 323.587,98.524 323.572 C 99.369 323.545,99.371 323.531,98.600 323.200 C 97.499 322.727,97.108 322.727,97.400 323.200 M101.000 323.200 C 100.229 323.531,100.231 323.545,101.076 323.572 C 101.558 323.587,102.064 323.420,102.200 323.200 C 102.492 322.727,102.101 322.727,101.000 323.200 M151.000 323.200 C 151.136 323.420,151.642 323.587,152.124 323.572 C 152.969 323.545,152.971 323.531,152.200 323.200 C 151.099 322.727,150.708 322.727,151.000 323.200 M154.200 323.200 C 153.429 323.531,153.431 323.545,154.276 323.572 C 154.758 323.587,155.264 323.420,155.400 323.200 C 155.692 322.727,155.301 322.727,154.200 323.200 " stroke="none" fill="#f1c7bf" fill-rule="evenodd"></path><path id="path5" d="M122.305 103.883 C 122.802 103.979,123.522 103.975,123.905 103.875 C 124.287 103.775,123.880 103.696,123.000 103.701 C 122.120 103.705,121.807 103.787,122.305 103.883 M129.300 103.876 C 129.685 103.976,130.315 103.976,130.700 103.876 C 131.085 103.775,130.770 103.693,130.000 103.693 C 129.230 103.693,128.915 103.775,129.300 103.876 M60.128 170.000 C 60.128 171.430,60.201 172.015,60.289 171.300 C 60.378 170.585,60.378 169.415,60.289 168.700 C 60.201 167.985,60.128 168.570,60.128 170.000 M93.389 289.600 C 93.389 304.670,93.439 310.835,93.500 303.300 C 93.561 295.765,93.561 283.435,93.500 275.900 C 93.439 268.365,93.389 274.530,93.389 289.600 " stroke="none" fill="#f7b4ac" fill-rule="evenodd"></path><path id="path6" d="M119.375 134.100 L 118.200 135.400 119.500 134.225 C 120.712 133.130,120.984 132.800,120.675 132.800 C 120.606 132.800,120.021 133.385,119.375 134.100 M133.200 133.725 C 133.200 133.794,133.785 134.379,134.500 135.025 L 135.800 136.200 134.625 134.900 C 133.530 133.688,133.200 133.416,133.200 133.725 M114.975 138.100 L 113.800 139.400 115.100 138.225 C 115.815 137.579,116.400 136.994,116.400 136.925 C 116.400 136.616,116.070 136.888,114.975 138.100 M238.190 137.224 C 233.944 138.460,232.494 144.275,235.603 147.603 C 237.491 149.624,237.517 149.625,274.075 149.509 L 308.200 149.400 309.657 148.494 C 314.018 145.782,312.998 138.745,308.029 137.256 C 306.179 136.702,240.089 136.672,238.190 137.224 M328.200 137.394 C 322.190 139.544,323.000 148.473,329.289 149.400 C 334.358 150.147,362.571 149.421,363.847 148.510 C 367.761 145.719,367.407 139.811,363.200 137.702 C 361.259 136.729,330.808 136.461,328.200 137.394 M137.600 137.725 C 137.600 137.794,138.185 138.379,138.900 139.025 L 140.200 140.200 139.025 138.900 C 137.930 137.688,137.600 137.416,137.600 137.725 M309.389 138.500 C 312.780 140.714,312.691 145.958,309.225 148.114 L 307.800 149.000 274.076 149.109 C 251.513 149.182,239.837 149.079,238.797 148.799 C 234.124 147.541,232.959 141.201,236.908 138.525 L 238.200 137.650 273.106 137.625 L 308.011 137.600 309.389 138.500 M362.926 138.063 C 367.466 140.468,366.723 147.384,361.777 148.758 C 358.502 149.667,330.265 149.336,328.000 148.362 C 323.903 146.599,323.307 142.154,326.732 138.900 L 328.101 137.600 345.077 137.600 C 357.161 137.600,362.304 137.733,362.926 138.063 M110.378 142.300 L 109.000 143.800 110.500 142.422 C 111.896 141.138,112.184 140.800,111.878 140.800 C 111.812 140.800,111.137 141.475,110.378 142.300 M143.200 143.000 C 143.946 143.770,144.647 144.400,144.757 144.400 C 144.867 144.400,144.346 143.770,143.600 143.000 C 142.854 142.230,142.153 141.600,142.043 141.600 C 141.933 141.600,142.454 142.230,143.200 143.000 M125.803 145.195 C 125.661 145.424,125.826 145.488,126.194 145.347 C 126.545 145.212,127.226 145.438,127.715 145.851 L 128.600 146.600 127.838 145.700 C 127.030 144.746,126.207 144.542,125.803 145.195 M122.981 147.700 L 121.400 149.400 123.100 147.819 C 124.681 146.348,124.984 146.000,124.681 146.000 C 124.616 146.000,123.851 146.765,122.981 147.700 M146.800 146.125 C 146.800 146.194,147.385 146.779,148.100 147.425 L 149.400 148.600 148.225 147.300 C 147.130 146.088,146.800 145.816,146.800 146.125 M130.000 147.725 C 130.000 147.794,130.585 148.379,131.300 149.025 L 132.600 150.200 131.425 148.900 C 130.330 147.688,130.000 147.416,130.000 147.725 M101.375 150.500 L 100.200 151.800 101.500 150.625 C 102.712 149.530,102.984 149.200,102.675 149.200 C 102.606 149.200,102.021 149.785,101.375 150.500 M151.200 150.125 C 151.200 150.194,151.785 150.779,152.500 151.425 L 153.800 152.600 152.625 151.300 C 151.530 150.088,151.200 149.816,151.200 150.125 M118.378 151.900 L 117.000 153.400 118.500 152.022 C 119.325 151.263,120.000 150.588,120.000 150.522 C 120.000 150.216,119.662 150.504,118.378 151.900 M135.775 153.100 L 136.950 154.400 131.175 154.488 L 125.400 154.575 130.968 154.699 C 137.222 154.839,137.756 154.652,135.903 152.977 L 134.600 151.800 135.775 153.100 M156.400 155.000 C 157.146 155.770,157.847 156.400,157.957 156.400 C 158.067 156.400,157.546 155.770,156.800 155.000 C 156.054 154.230,155.353 153.600,155.243 153.600 C 155.133 153.600,155.654 154.230,156.400 155.000 M118.311 154.293 C 119.251 154.378,120.691 154.377,121.511 154.291 C 122.330 154.205,121.560 154.136,119.800 154.137 C 118.040 154.139,117.370 154.209,118.311 154.293 M92.585 158.500 L 90.600 160.600 92.700 158.615 C 94.651 156.771,94.983 156.400,94.685 156.400 C 94.622 156.400,93.677 157.345,92.585 158.500 M161.000 159.200 C 161.859 160.080,162.652 160.800,162.762 160.800 C 162.872 160.800,162.259 160.080,161.400 159.200 C 160.541 158.320,159.748 157.600,159.638 157.600 C 159.528 157.600,160.141 158.320,161.000 159.200 M165.200 163.000 C 165.946 163.770,166.647 164.400,166.757 164.400 C 166.867 164.400,166.346 163.770,165.600 163.000 C 164.854 162.230,164.153 161.600,164.043 161.600 C 163.933 161.600,164.454 162.230,165.200 163.000 M125.905 170.283 C 126.402 170.379,127.122 170.375,127.505 170.275 C 127.887 170.175,127.480 170.096,126.600 170.101 C 125.720 170.105,125.407 170.187,125.905 170.283 M237.260 171.079 C 233.104 173.126,232.691 178.846,236.490 181.743 L 237.876 182.800 299.958 182.800 C 368.639 182.800,363.281 183.014,365.436 180.188 C 367.633 177.307,366.515 172.714,363.199 171.000 C 361.341 170.039,239.214 170.116,237.260 171.079 M363.506 171.932 C 367.172 174.546,366.710 180.142,362.692 181.784 C 360.806 182.554,240.145 182.738,238.126 181.973 C 234.290 180.520,233.287 175.540,236.237 172.590 C 238.048 170.779,232.883 170.909,301.000 170.957 L 362.200 171.000 363.506 171.932 M95.775 172.500 L 94.600 173.800 95.900 172.625 C 96.615 171.979,97.200 171.394,97.200 171.325 C 97.200 171.016,96.870 171.288,95.775 172.500 M157.601 172.937 C 158.151 173.562,158.960 174.259,159.400 174.486 C 160.242 174.920,160.218 174.893,158.001 172.997 L 156.603 171.800 157.601 172.937 M156.090 187.800 C 156.034 196.380,155.896 203.850,155.783 204.400 L 155.577 205.400 155.993 204.453 C 156.264 203.835,156.371 198.052,156.300 187.853 L 156.190 172.200 156.090 187.800 M97.742 176.600 C 97.741 178.580,97.808 179.440,97.892 178.512 C 97.976 177.584,97.977 175.964,97.895 174.912 C 97.812 173.860,97.743 174.620,97.742 176.600 M97.331 190.600 C 97.333 192.140,97.405 192.721,97.492 191.891 C 97.579 191.061,97.577 189.801,97.489 189.091 C 97.400 188.381,97.329 189.060,97.331 190.600 M96.940 198.400 C 96.940 200.270,97.009 201.035,97.093 200.100 C 97.177 199.165,97.177 197.635,97.093 196.700 C 97.009 195.765,96.940 196.530,96.940 198.400 M261.600 203.984 C 286.086 204.227,285.435 204.145,287.134 207.169 C 288.225 209.109,288.233 210.876,287.162 212.782 C 285.386 215.942,286.608 215.800,261.200 215.800 L 238.600 215.800 237.175 214.914 C 233.226 212.458,233.814 206.544,238.200 204.598 C 239.099 204.199,239.206 204.057,238.625 204.033 C 233.324 203.810,232.288 213.125,237.341 215.572 C 239.960 216.839,282.392 216.868,284.974 215.603 C 289.254 213.507,289.651 207.911,285.732 204.921 L 284.263 203.800 262.032 203.784 L 239.800 203.768 261.600 203.984 M319.729 203.900 C 327.390 203.961,339.810 203.961,347.329 203.900 C 354.848 203.839,348.580 203.789,333.400 203.789 C 318.220 203.789,312.068 203.839,319.729 203.900 M302.896 204.798 C 298.632 207.398,299.198 213.903,303.857 215.850 C 306.292 216.867,361.160 216.641,363.190 215.605 C 365.878 214.234,367.187 211.323,366.412 208.443 C 365.919 206.615,363.251 203.994,361.899 204.011 C 361.213 204.020,361.416 204.235,362.758 204.922 C 366.910 207.045,367.084 212.908,363.061 215.110 C 361.734 215.836,312.669 216.426,306.475 215.790 C 299.666 215.091,298.274 206.693,304.600 204.482 C 305.468 204.179,305.579 204.055,305.000 204.033 C 304.560 204.017,303.613 204.361,302.896 204.798 M268.800 250.686 C 264.866 251.419,262.663 256.771,264.894 260.175 C 266.874 263.195,264.431 263.000,300.200 263.000 L 332.200 263.000 333.657 262.094 C 337.444 259.739,337.444 253.861,333.657 251.506 L 332.200 250.600 301.000 250.550 C 283.840 250.522,269.350 250.583,268.800 250.686 M333.446 252.091 C 336.493 254.442,336.781 258.339,334.105 261.015 L 332.720 262.400 300.238 262.400 L 267.757 262.400 266.526 261.100 C 264.158 258.597,263.794 256.586,265.245 254.006 C 266.876 251.104,264.973 251.254,300.446 251.226 L 332.292 251.200 333.446 252.091 " stroke="none" fill="#cccccc" fill-rule="evenodd"></path><path id="path7" d="M142.400 85.379 C 142.400 85.489,142.940 85.859,143.600 86.200 C 144.260 86.541,144.800 86.731,144.800 86.621 C 144.800 86.511,144.260 86.141,143.600 85.800 C 142.940 85.459,142.400 85.269,142.400 85.379 M82.070 88.740 C 81.196 88.985,98.669 88.923,103.000 88.667 C 104.100 88.601,100.050 88.533,94.000 88.514 C 87.950 88.495,82.582 88.597,82.070 88.740 M150.200 88.672 C 155.621 88.937,171.527 88.980,170.889 88.728 C 170.510 88.579,165.160 88.478,159.000 88.505 C 152.840 88.532,148.880 88.607,150.200 88.672 M125.111 103.493 C 126.051 103.578,127.491 103.577,128.311 103.491 C 129.130 103.405,128.360 103.336,126.600 103.337 C 124.840 103.339,124.170 103.409,125.111 103.493 M118.905 103.887 C 119.514 103.979,120.414 103.977,120.905 103.882 C 121.397 103.787,120.900 103.711,119.800 103.714 C 118.700 103.717,118.297 103.795,118.905 103.887 M132.100 103.887 C 132.705 103.978,133.695 103.978,134.300 103.887 C 134.905 103.795,134.410 103.720,133.200 103.720 C 131.990 103.720,131.495 103.795,132.100 103.887 M113.300 104.676 C 113.685 104.776,114.315 104.776,114.700 104.676 C 115.085 104.575,114.770 104.493,114.000 104.493 C 113.230 104.493,112.915 104.575,113.300 104.676 M138.033 104.543 C 138.125 104.622,138.920 104.797,139.800 104.932 C 140.890 105.099,141.209 105.055,140.800 104.795 C 140.253 104.446,137.645 104.209,138.033 104.543 M109.200 105.618 C 108.762 105.915,108.924 105.952,109.800 105.756 C 111.271 105.427,111.590 105.198,110.567 105.206 C 110.145 105.209,109.530 105.395,109.200 105.618 M144.833 106.144 C 144.925 106.223,145.540 106.408,146.200 106.556 C 147.076 106.752,147.238 106.715,146.800 106.418 C 146.260 106.053,144.432 105.798,144.833 106.144 M62.000 113.236 C 61.336 113.779,61.269 113.915,61.800 113.640 C 63.105 112.966,63.828 112.412,63.400 112.415 C 63.180 112.417,62.550 112.786,62.000 113.236 M160.000 112.579 C 160.000 112.689,160.540 113.059,161.200 113.400 C 161.860 113.741,162.400 113.931,162.400 113.821 C 162.400 113.711,161.860 113.341,161.200 113.000 C 160.540 112.659,160.000 112.469,160.000 112.579 M164.140 115.103 C 164.296 115.356,164.991 115.967,165.684 116.460 C 166.377 116.954,166.817 117.150,166.660 116.897 C 166.504 116.644,165.809 116.033,165.116 115.540 C 164.423 115.046,163.983 114.850,164.140 115.103 M53.900 117.829 C 52.405 118.640,52.496 118.978,54.000 118.200 C 54.660 117.859,55.200 117.494,55.200 117.390 C 55.200 117.132,55.157 117.147,53.900 117.829 M83.375 119.300 L 82.200 120.600 83.500 119.425 C 84.215 118.779,84.800 118.194,84.800 118.125 C 84.800 117.816,84.470 118.088,83.375 119.300 M169.200 118.925 C 169.200 118.994,169.785 119.579,170.500 120.225 L 171.800 121.400 170.625 120.100 C 169.530 118.888,169.200 118.616,169.200 118.925 M176.578 126.400 C 179.204 129.356,179.474 129.609,178.500 128.200 C 178.043 127.540,176.984 126.370,176.147 125.600 C 174.930 124.482,175.017 124.642,176.578 126.400 M45.200 136.680 C 45.090 143.325,45.138 148.623,45.306 148.454 C 45.475 148.286,45.564 142.849,45.506 136.374 L 45.399 124.600 45.200 136.680 M75.775 126.900 L 74.600 128.200 75.900 127.025 C 76.615 126.379,77.200 125.794,77.200 125.725 C 77.200 125.416,76.870 125.688,75.775 126.900 M207.684 137.076 C 207.638 143.278,207.735 148.437,207.900 148.539 C 208.065 148.641,208.154 145.367,208.098 141.262 C 207.904 127.186,207.769 125.812,207.684 137.076 M181.061 132.273 C 182.925 134.988,184.042 136.393,183.389 135.200 C 182.635 133.823,179.973 130.031,179.596 129.798 C 179.372 129.659,180.031 130.773,181.061 132.273 M71.523 132.300 C 70.818 133.121,70.290 134.000,70.501 134.000 C 70.583 134.000,71.049 133.460,71.537 132.800 C 72.501 131.496,72.492 131.172,71.523 132.300 M61.000 157.200 C 60.848 157.891,60.807 158.541,60.909 158.642 C 61.011 158.744,61.209 158.253,61.350 157.550 C 61.683 155.883,61.360 155.560,61.000 157.200 M191.862 158.200 C 191.996 159.080,192.172 159.875,192.253 159.967 C 192.556 160.310,192.329 158.168,191.981 157.400 C 191.729 156.842,191.693 157.085,191.862 158.200 M192.706 164.919 C 192.902 169.247,193.085 169.789,193.139 166.200 C 193.166 164.440,193.050 162.783,192.882 162.519 C 192.714 162.254,192.635 163.334,192.706 164.919 M60.131 165.000 C 60.133 166.540,60.205 167.121,60.292 166.291 C 60.379 165.461,60.377 164.201,60.289 163.491 C 60.200 162.781,60.129 163.460,60.131 165.000 M33.849 167.815 C 33.712 168.173,33.615 168.766,33.634 169.133 C 33.653 169.500,33.827 169.269,34.021 168.620 C 34.398 167.358,34.265 166.733,33.849 167.815 M219.293 170.000 C 219.293 170.770,219.375 171.085,219.476 170.700 C 219.576 170.315,219.576 169.685,219.476 169.300 C 219.375 168.915,219.293 169.230,219.293 170.000 M33.606 171.033 C 33.609 171.455,33.795 172.070,34.018 172.400 C 34.315 172.838,34.352 172.676,34.156 171.800 C 33.827 170.329,33.598 170.010,33.606 171.033 M192.881 173.467 C 192.837 175.264,192.696 177.064,192.570 177.467 C 192.356 178.146,192.372 178.149,192.786 177.506 C 193.054 177.090,193.179 175.493,193.098 173.506 L 192.963 170.200 192.881 173.467 M60.060 174.800 C 60.058 176.230,60.200 177.760,60.376 178.200 C 60.557 178.654,60.617 177.701,60.515 176.000 C 60.282 172.093,60.064 171.519,60.060 174.800 M192.054 180.400 C 192.019 180.950,191.896 181.850,191.783 182.400 L 191.577 183.400 192.007 182.415 C 192.243 181.874,192.365 180.974,192.278 180.415 L 192.120 179.400 192.054 180.400 M39.000 181.200 C 39.341 181.860,39.711 182.400,39.821 182.400 C 39.931 182.400,39.741 181.860,39.400 181.200 C 39.059 180.540,38.689 180.000,38.579 180.000 C 38.469 180.000,38.659 180.540,39.000 181.200 M60.806 181.633 C 60.809 182.165,60.989 182.870,61.206 183.200 C 61.482 183.622,61.523 183.385,61.342 182.400 C 61.025 180.675,60.798 180.349,60.806 181.633 M43.560 189.000 C 44.234 190.305,44.788 191.028,44.785 190.600 C 44.783 190.380,44.414 189.750,43.964 189.200 C 43.421 188.536,43.285 188.469,43.560 189.000 M45.200 203.120 L 45.399 215.000 45.506 203.426 C 45.565 197.061,45.475 191.714,45.306 191.546 C 45.138 191.377,45.090 196.585,45.200 203.120 M207.776 202.600 C 207.776 208.760,207.832 211.224,207.899 208.076 C 207.967 204.927,207.967 199.887,207.899 196.876 C 207.831 193.864,207.776 196.440,207.776 202.600 M69.630 204.600 C 70.124 205.480,70.700 206.380,70.910 206.600 C 71.509 207.228,70.139 204.694,69.396 203.800 C 69.030 203.360,69.135 203.720,69.630 204.600 M182.065 206.300 C 181.140 207.785,180.816 208.483,181.345 207.852 C 182.324 206.683,184.176 203.600,183.899 203.600 C 183.815 203.600,182.990 204.815,182.065 206.300 M72.437 208.800 C 73.596 210.596,73.600 210.601,73.598 210.167 C 73.597 209.965,73.132 209.260,72.565 208.600 L 71.534 207.400 72.437 208.800 M74.800 212.125 C 74.800 212.194,75.385 212.779,76.100 213.425 L 77.400 214.600 76.225 213.300 C 75.130 212.088,74.800 211.816,74.800 212.125 M175.781 214.500 L 174.200 216.200 175.900 214.619 C 177.481 213.148,177.784 212.800,177.481 212.800 C 177.416 212.800,176.651 213.565,175.781 214.500 M79.688 217.413 C 80.286 218.043,80.847 218.477,80.935 218.379 C 81.023 218.280,80.533 217.765,79.847 217.234 L 78.600 216.269 79.688 217.413 M205.478 217.813 C 204.860 218.356,204.514 218.800,204.708 218.800 C 204.902 218.800,205.483 218.350,206.000 217.800 C 207.195 216.528,206.931 216.534,205.478 217.813 M170.581 219.700 L 169.000 221.400 170.700 219.819 C 172.281 218.348,172.584 218.000,172.281 218.000 C 172.216 218.000,171.451 218.765,170.581 219.700 M53.600 221.779 C 53.600 221.889,54.140 222.259,54.800 222.600 C 55.460 222.941,56.000 223.131,56.000 223.021 C 56.000 222.911,55.460 222.541,54.800 222.200 C 54.140 221.859,53.600 221.669,53.600 221.779 M159.400 227.600 C 158.740 228.037,158.380 228.392,158.600 228.388 C 159.001 228.382,161.176 226.823,160.800 226.812 C 160.690 226.808,160.060 227.163,159.400 227.600 M181.800 236.400 C 181.459 237.060,181.269 237.600,181.379 237.600 C 181.489 237.600,181.859 237.060,182.200 236.400 C 182.541 235.740,182.731 235.200,182.621 235.200 C 182.511 235.200,182.141 235.740,181.800 236.400 M120.500 236.287 C 121.105 236.378,122.095 236.378,122.700 236.287 C 123.305 236.195,122.810 236.120,121.600 236.120 C 120.390 236.120,119.895 236.195,120.500 236.287 M130.500 236.287 C 131.105 236.378,132.095 236.378,132.700 236.287 C 133.305 236.195,132.810 236.120,131.600 236.120 C 130.390 236.120,129.895 236.195,130.500 236.287 M125.091 236.689 C 125.801 236.777,127.061 236.779,127.891 236.692 C 128.721 236.605,128.140 236.533,126.600 236.531 C 125.060 236.529,124.381 236.600,125.091 236.689 M174.823 248.300 C 174.091 249.345,173.831 249.897,174.246 249.527 C 174.971 248.880,176.599 246.400,176.300 246.400 C 176.220 246.400,175.555 247.255,174.823 248.300 M82.018 251.246 C 82.558 251.397,85.430 251.514,88.400 251.506 C 95.043 251.488,94.123 251.280,86.618 251.104 C 83.547 251.031,81.477 251.096,82.018 251.246 M165.000 251.183 L 159.400 251.400 159.397 284.200 L 159.393 317.000 159.499 284.300 L 159.605 251.600 164.902 251.572 C 167.816 251.556,170.560 251.389,171.000 251.200 C 171.440 251.011,171.530 250.881,171.200 250.911 C 170.870 250.941,168.080 251.063,165.000 251.183 M93.755 257.000 C 93.756 259.860,93.820 260.978,93.897 259.483 C 93.974 257.989,93.974 255.649,93.896 254.283 C 93.818 252.918,93.755 254.140,93.755 257.000 M126.736 305.226 C 127.250 305.432,128.326 306.141,129.127 306.800 C 129.927 307.460,130.739 308.000,130.931 308.000 C 131.123 308.000,130.322 307.280,129.151 306.400 C 127.980 305.520,126.747 304.811,126.411 304.825 C 126.064 304.840,126.204 305.013,126.736 305.226 M93.693 317.600 C 93.693 318.370,93.775 318.685,93.876 318.300 C 93.976 317.915,93.976 317.285,93.876 316.900 C 93.775 316.515,93.693 316.830,93.693 317.600 M108.000 318.449 C 106.606 319.671,106.605 319.672,107.888 318.819 C 108.596 318.348,109.282 317.791,109.412 317.581 C 109.797 316.957,109.477 317.154,108.000 318.449 M104.958 320.625 C 104.275 321.169,103.015 321.977,102.158 322.421 C 101.253 322.890,101.019 323.116,101.600 322.959 C 102.663 322.674,105.794 320.657,106.203 319.995 C 106.562 319.414,106.338 319.528,104.958 320.625 M147.200 320.146 C 147.200 320.256,147.740 320.730,148.400 321.200 C 149.060 321.670,149.600 321.964,149.600 321.854 C 149.600 321.744,149.060 321.270,148.400 320.800 C 147.740 320.330,147.200 320.036,147.200 320.146 " stroke="none" fill="#f4b4a4" fill-rule="evenodd"></path></g></svg>